<svg width="32" height="32" viewBox="0 0 32 32" fill="none" xmlns="http://www.w3.org/2000/svg">
<g clip-path="url(#clip0_746_294)">
<path d="M28 0H4C1.79086 0 0 1.79086 0 4V28C0 30.2091 1.79086 32 4 32H28C30.2091 32 32 30.2091 32 28V4C32 1.79086 30.2091 0 28 0Z" fill="#141B34"/>
<g clip-path="url(#clip1_746_294)">
<path d="M8.25675 27.9672C8.25675 27.9672 8.33955 28.0285 8.41235 27.6637V27.1948L8.56223 27.0508V26.8855L8.61219 26.6475L8.83345 26.1729L8.88912 25.8907V25.3876C8.88912 25.3876 8.91624 24.4213 9.08897 24.2831C9.08897 24.2831 9.64282 23.0731 9.66424 22.808C9.66424 22.808 9.63711 22.2778 9.77558 22.2949C9.77558 22.2949 9.86979 22.3391 9.91404 22.5928C9.91404 22.5928 10.1967 23.8028 10.4236 24.2004L10.4508 24.3714V25.8636C10.4508 25.8636 10.4122 26.1458 10.5336 26.3724C10.5336 26.3724 10.7991 26.8912 10.949 27.0024C10.949 27.0024 10.9047 27.715 11.43 27.6879C11.9553 27.6608 11.8954 27.1791 11.8668 27.0465C11.8383 26.914 11.7669 26.9083 11.7669 26.9083L11.794 26.8413L11.8268 26.8028L11.804 26.7259L11.7155 26.6147L11.7269 26.4822L11.7712 26.3938V26.2726L11.6327 26.0517L11.5828 25.9363L11.5442 25.6983L11.5613 25.3121L11.6556 24.2574L11.7326 23.4678L11.7441 22.54C11.7441 22.54 12.3522 22.5286 12.2751 21.9044L12.0981 21.2417H12.1809L11.7769 18.8003L11.6556 18.6791L11.6998 18.568L11.6884 18.2972L11.6056 18.1091C11.6056 18.1091 11.6498 16.7394 11.1402 16.4572C11.1402 16.4572 10.6478 16.2135 10.5864 16.0154C10.5864 16.0154 10.9961 14.9266 10.8019 14.4349C10.8019 14.4349 10.525 13.8377 9.96115 13.7779H9.40301C9.40301 13.7779 8.9605 13.8548 8.77778 14.5617C8.59506 15.2686 8.81632 15.7831 8.88912 15.9541C8.96192 16.1252 8.68499 16.1423 8.68499 16.1423C8.68499 16.1423 8.46945 15.9157 8.43662 15.347C8.43662 15.347 8.36524 14.6558 8.3424 14.5403C8.33669 14.5133 8.39807 14.0543 8.18253 14.06V13.7779L6.76648 13.9817C6.76648 13.9817 7.386 13.976 7.52446 14.1028C7.66293 14.2296 7.53017 14.8425 7.53017 14.8425L7.4745 14.9038L7.50733 15.3285L7.45166 15.4168L7.50162 16.2349L7.64009 16.3903L7.62867 16.6995L7.66721 16.8592L7.87705 17.0088L7.94414 17.1741L8.18253 17.7984L8.21536 18.0463L8.2539 18.5053L8.27674 18.8088L8.19966 18.9685L8.0669 19.1623L7.98411 19.3447V19.6212L8.13399 19.7594L8.09545 19.9533L8.21108 20.0801L8.19966 20.2184L8.11686 20.4222L8.09973 20.5932L8.19966 20.6816L8.17253 20.7756L7.9627 20.9694L7.69148 23.0075L7.72431 23.1899L7.83993 23.4436L7.91702 23.5705L7.9056 24.1391L7.81709 24.6636L7.7343 25.0113L7.68434 25.3035L7.65722 25.6684L7.6458 26.1216C7.6458 26.1216 7.41883 26.3539 7.43596 26.4636V26.9724L7.50733 27.0551L7.30749 27.2261L7.50733 27.2489L7.43596 27.4527L7.51304 27.4969L7.57443 27.6024L7.61297 27.7235V27.8233L7.68006 27.9116L7.75714 27.9701L7.86277 28L8.26104 27.9672H8.25675Z" fill="white"/>
<path d="M13.2742 27.4442H13.437C13.437 27.4442 13.5554 27.3929 13.5697 27.3188C13.584 27.2446 13.6182 27.0351 13.6182 27.0351L13.781 26.8655L13.7995 26.6218L13.8509 26.371C13.8509 26.371 13.918 26.1059 13.9209 26.0945C13.9237 26.0831 13.9608 25.8693 13.9608 25.8693L13.9423 25.523L13.8909 25.1467C13.8909 25.1467 13.8538 24.8774 13.8581 24.8674C13.8623 24.8574 13.8909 24.6137 13.8909 24.6137L13.9237 24.3087L13.9466 24.1021L14.1164 23.9581L14.1792 23.8769L14.2092 23.6417L14.2763 23.4906L14.4719 23.1928L14.6717 22.7581C14.6717 22.7581 14.8373 22.4816 14.853 22.4631C14.8687 22.4445 14.9858 22.3448 14.9858 22.3448L15.0257 22.359L15.0885 22.55L15.2584 22.9077L15.3726 23.1514L15.5639 23.5163L15.6824 23.7258L15.8008 23.9424L15.8936 24.1234L15.9864 24.3258L16.0564 24.4726L16.1306 24.6935L16.1934 24.893L16.2562 25.0883L16.2933 25.2878C16.2933 25.2878 16.3119 25.446 16.3119 25.4646C16.3119 25.4831 16.2933 25.6997 16.2933 25.6997L16.2448 25.8722L16.2005 26.0275L16.1891 26.1857V26.3924L16.3261 26.5833L16.2262 26.9624L16.506 27.0836L16.7387 27.1948C16.7387 27.1948 17.0413 27.6223 17.4067 27.5739C17.4067 27.5739 18.0777 27.6223 17.8236 27.2275C17.8236 27.2275 17.4067 26.7187 17.1812 26.5648L17.2326 26.5135L17.2511 26.2484L17.2883 26.1415L17.4096 25.9506L17.3325 25.5087L17.1883 24.7648C17.1883 24.7648 17.077 24.1762 17.077 24.1576C17.077 24.1391 16.9371 23.3952 16.9328 23.3766C16.9285 23.3581 16.8515 22.9533 16.8515 22.9533L16.8657 22.8208L16.8886 22.7581L16.8957 21.7676L16.7772 21.598L16.7187 21.4212L16.6959 21.2046L16.7001 20.7999C16.7001 20.7999 16.5888 20.5419 16.5888 20.5305C16.5888 20.5191 16.5403 20.4165 16.5403 20.4165L16.6802 20.2511L16.673 20.1514L16.6102 19.9633L16.5588 19.8492C16.5588 19.8492 16.5217 19.4288 16.526 19.4145C16.5303 19.4003 16.5446 19.2193 16.5446 19.2193L16.5488 18.5965L16.5974 17.7756C16.5974 17.7756 16.7558 17.2753 16.8557 17.2482H17.4125L17.785 17.2881L18.0834 17.3437L18.3189 17.3993C18.3189 17.3993 18.4659 17.4136 18.4773 17.4178C18.4888 17.4221 18.6401 17.3922 18.6543 17.3879C18.6686 17.3836 18.7757 17.2953 18.7757 17.2953L18.8014 17.214C18.8014 17.214 18.7971 16.6981 18.8014 16.6839C18.8057 16.6696 18.7429 16.3375 18.7429 16.3375L18.6658 15.9513L18.6586 15.8002L18.71 15.642L18.7214 15.5907L18.6101 15.4325V15.3627L18.1376 15.7674L18.189 15.8002L18.2332 15.823L18.219 16.7181L17.8835 16.7223L17.7179 16.6226C17.7179 16.6226 17.5038 16.4416 17.234 16.4416C17.234 16.4416 16.8358 16.3418 16.6102 16.1066C16.6102 16.1066 16.3561 15.9556 15.8508 16.081C15.8508 16.081 15.6367 16.0952 15.394 15.7931C15.394 15.7931 15.2755 15.6905 15.3383 15.4097L15.364 15.2515L15.4411 15.1489L15.4854 15.0791L15.4996 14.9166L15.4768 14.824L15.4183 14.7541L15.414 14.5817L14.2892 13.9403L14.0451 13.9631L13.9965 14.033L13.9009 14.184L13.6539 14.5703L13.7025 14.5959L13.8681 14.7983L13.8723 14.9422L13.8652 15.2073C13.8652 15.2073 13.9423 15.3955 14.1164 15.3769L14.135 15.4325C14.135 15.4325 14.2749 15.6976 14.4119 15.8088L14.4076 15.9741C14.4076 15.9741 14.075 15.9442 13.9865 15.9442C13.9865 15.9442 13.8309 15.7233 13.5255 15.6278C13.5255 15.6278 13.4141 15.595 13.337 15.3627C13.337 15.3627 13.2928 15.2487 12.9573 14.8838C12.9573 14.8838 12.8617 14.6558 12.8988 14.5603L12.9174 13.4187L12.9545 13.1835L12.7261 13.0068L12.4163 13.1322L12.3906 13.3859C12.3906 13.3859 12.235 14.1042 12.2464 14.2439C12.2464 14.2439 12.2322 14.9323 12.4163 15.2016C12.4163 15.2016 13.1243 16.2292 13.1058 16.5242C13.1058 16.5242 13.367 16.6568 13.5155 16.9546C13.5155 16.9546 13.5997 17.2682 13.5854 17.4335C13.5854 17.4335 13.5925 17.8354 13.6739 18.0449C13.6739 18.0449 13.6668 18.6378 13.5269 18.9884C13.5269 18.9884 13.2799 19.7138 13.2871 20.0787L13.4498 20.1628C13.4498 20.1628 13.1615 20.9025 13.0887 21.5623C13.0887 21.5623 12.9673 22.4973 12.993 22.8621C12.993 22.8621 13.1115 22.9647 13.1215 23.1272C13.1215 23.1272 13.1543 23.8669 12.7532 24.3899C12.7532 24.3899 12.8717 25.0455 12.8603 25.7638L12.679 25.9363L12.9116 26.18L12.9488 26.6218C12.9488 26.6218 12.639 26.9824 12.7389 27.3473C12.7389 27.3473 12.816 27.4983 13.2771 27.4427L13.2742 27.4442Z" fill="white"/>
<path d="M18.5487 15.5038L18.8699 15.0292L18.9255 14.9294L18.8485 14.824L18.8656 14.7356L18.927 14.6686V14.3707H18.7728L18.2575 14.3095C18.2575 14.3095 17.8207 15.089 17.8207 15.1104C17.8207 15.1318 17.9477 15.5793 17.9477 15.5793L18.0191 15.7119C18.0191 15.7119 18.0334 15.756 18.0862 15.7617C18.139 15.7674 18.2075 15.7617 18.2075 15.7617L18.5501 15.5024L18.5487 15.5038Z" fill="white"/>
<path d="M21.064 11.8096C21.034 11.8096 20.6172 11.7028 20.5586 11.8096C20.5001 11.9165 20.5586 11.8282 20.5586 11.8282C20.5586 11.8282 20.5329 11.8766 20.61 11.9906C20.61 11.9906 20.6143 12.26 20.5472 12.4111C20.5472 12.4111 20.4701 12.5736 20.6357 12.6363C20.6357 12.6363 21.0897 13.0011 21.1667 13.1778C21.1667 13.1778 21.2695 13.4315 21.3437 13.8035C21.3437 13.8035 21.5507 14.4007 21.7563 14.5802C21.7563 14.5802 22.2573 15.5052 22.3572 15.5522C22.3572 15.5522 22.5742 15.8758 22.5671 16.1337C22.5671 16.1337 22.8554 16.2891 22.8997 16.3546C22.9439 16.4202 23.1138 16.852 23.1723 16.9404C23.1723 16.9404 23.2209 17.3451 23.2237 17.71C23.2237 17.71 23.1338 19.0069 23.011 19.7024L23.1109 19.7694C23.1109 19.7694 23.1167 20.0787 22.9454 20.4991C22.9454 20.4991 22.7127 21.2559 22.7355 21.4654C22.7355 21.4654 22.6028 22.3818 22.6856 22.8906L22.7027 23.2441C22.7027 23.2441 22.343 23.9895 22.3701 24.0721L22.353 25.0997L22.4586 25.7296L22.4086 26.2712H22.4971C22.4971 26.2712 22.3258 26.6746 22.1988 26.7244C22.1988 26.7244 21.8662 27.1663 22.1545 27.2218C22.1545 27.2218 22.47 27.343 22.8469 27.2218C22.8469 27.2218 22.9354 27.2546 23.1067 26.7857L23.3722 26.7743C23.3722 26.7743 23.4607 25.741 23.3336 25.4261C23.3336 25.4261 23.3108 24.6465 23.5049 24.4042C23.5049 24.4042 24.2743 22.5087 24.3685 22.4816C24.3685 22.4816 24.6283 22.0013 24.7397 21.9956C24.7397 21.9956 24.8896 22.2051 25.0166 22.6027L25.2707 23.093L25.5305 23.7187L25.7518 24.2375L25.9231 24.7234L25.9559 25.0384L25.9059 25.7011L25.9559 26.6959L26.4312 26.8071C26.4312 26.8071 26.5868 27.2375 27.1278 27.2218C27.1278 27.2218 27.6032 27.2489 27.5704 27.0622L27.5475 26.8627L26.9052 26.3154L26.9722 26.2655L26.9894 25.9235L27.0393 25.7909C27.0393 25.7909 27.1278 25.5586 27.1278 25.5429C27.1278 25.5273 27.1393 25.3876 27.1393 25.3876C27.1393 25.3876 27.045 25.1838 27.0393 25.161C27.0336 25.1382 27.0008 24.8902 27.0008 24.8902L26.9894 24.6137C26.9894 24.6137 27.0122 24.2987 26.7182 23.4593L26.7067 22.3205C26.7067 22.3205 26.6682 21.4041 26.6568 21.387C26.6454 21.3699 26.5183 20.9509 26.5183 20.9509L26.4912 20.7029L26.5026 20.6317L26.4084 20.5162L26.4969 20.4051L26.5083 20.2454L26.3641 20.2127L26.3756 19.9248L26.2371 19.6597L26.5797 19.5656C26.5797 19.5656 26.6182 19.3661 26.1814 18.273L26.1543 16.3732C26.1543 16.3732 26.4084 15.9313 26.5797 15.8259L26.8338 15.223C26.8338 15.223 27.6346 14.1627 27.5718 13.1736L27.8087 13.0467L27.7416 12.3555C27.7416 12.3555 28.0186 12.0519 27.9957 11.908C27.9957 11.908 27.9729 11.8339 27.8573 11.7626L27.8687 11.3336L27.6246 11.2125L26.7067 11.908L27.0665 12.8244L27.105 12.9455C27.105 12.9455 26.8609 14.747 25.7332 15.2772L25.4891 15.2601L25.3621 15.3712L25.2564 15.3328L25.0794 15.3L24.9966 15.223V14.9522L25.1237 14.8696L25.118 14.643C25.118 14.643 25.3221 14.6045 25.3663 14.4434V14.2111L25.255 14.1997C25.255 14.1997 25.2493 13.9788 25.3221 13.9517V13.6809C25.3221 13.6809 25.295 13.3489 24.8525 13.212L24.487 13.0353L24.1658 13.2177C24.1658 13.2177 23.7005 13.4615 23.6562 13.7037C23.6562 13.7037 23.6734 14.0629 23.7176 14.1897V14.4106C23.7176 14.4106 23.7119 14.5931 23.9275 14.5603L23.9446 14.5874L23.9503 14.7912C23.9503 14.7912 24.0616 14.8852 24.0659 15.0121L24.0716 15.2601C24.0716 15.2601 24.0659 15.4311 23.839 15.4154C23.839 15.4154 23.2851 15.4824 22.9154 15.2002C22.9154 15.2002 22.55 14.643 22.4343 14.5817C22.4343 14.5817 22.3958 14.3722 21.6978 13.2391C21.6978 13.2391 21.3994 12.6705 21.438 12.6177C21.4765 12.565 21.3109 11.9294 21.3109 11.9294L21.0597 11.8096H21.064Z" fill="white"/>
<path d="M13.0002 11.1426L11.8496 5.17673L4 6.31119L5.69726 14.1342H5.99132L12.8103 13.0738L17.9877 16.0924L20.7613 9.99393V13.0068L27.7987 12.9213L27.5047 5L20.777 5.07411V7.59245L15.5211 5.41188L13.0002 11.1426Z" fill="white"/>
<path d="M10.4065 8.80815L10.0639 6.48792L5.37183 7.40433L6.94347 12.8957L11.0046 12.079L11.0589 10.973L9.24454 11.4263L9.1332 10.5982L10.5064 10.3987L10.5278 9.36114L8.92336 9.69178L8.8577 8.97348L10.4065 8.80815Z" fill="#0345EF"/>
<path d="M13.4142 12.0291L16.9329 7.84186L19.224 8.70269L18.3047 13.8634L16.202 13.0895L16.2691 12.6448L15.0843 12.7474L15.0301 11.9522L14.5433 12.4709L13.4142 12.0291Z" fill="#D61616"/>
<path d="M16.4132 10.6638V11.9237L15.2955 11.6472L16.4132 10.6638Z" fill="white"/>
<path d="M25.6975 8.38772C25.6975 8.38772 24.5028 8.48748 24.3586 9.55924V9.90129C24.3586 9.90129 24.6755 11.3935 26.6825 10.6638L26.4612 11.7028C26.4612 11.7028 26.3499 11.9351 25.886 11.9237H24.4699C24.4699 11.9237 21.8805 11.5374 21.5265 9.33833V8.62003C21.5265 8.62003 21.6478 5.5373 26.5726 6.15584L26.6839 8.4433L25.699 8.38772H25.6975Z" fill="#FDC608"/>
</g>
</g>
<defs>
<clipPath id="clip0_746_294">
<rect width="32" height="32" fill="white"/>
</clipPath>
<clipPath id="clip1_746_294">
<rect width="24" height="23" fill="white" transform="translate(4 5)"/>
</clipPath>
</defs>
</svg>
