<svg width="192" height="192" viewBox="0 0 192 192" fill="none" xmlns="http://www.w3.org/2000/svg">
<g clip-path="url(#clip0_746_301)">
<path d="M168 0H24C10.7452 0 0 10.7452 0 24V168C0 181.255 10.7452 192 24 192H168C181.255 192 192 181.255 192 168V24C192 10.7452 181.255 0 168 0Z" fill="#141B34"/>
<g clip-path="url(#clip1_746_301)">
<path d="M50.1855 162.808C50.1855 162.808 50.6754 163.167 51.1061 161.026V158.274L51.9929 157.429V156.458L52.2885 155.061L53.5976 152.276L53.927 150.619V147.666C53.927 147.666 54.0875 141.995 55.1094 141.183C55.1094 141.183 58.3864 134.081 58.5131 132.525C58.5131 132.525 58.3526 129.413 59.1719 129.513C59.1719 129.513 59.7293 129.773 59.9911 131.262C59.9911 131.262 61.6634 138.364 63.0063 140.698L63.1668 141.702V150.46C63.1668 150.46 62.9387 152.117 63.6566 153.447C63.6566 153.447 65.2276 156.492 66.1144 157.144C66.1144 157.144 65.8525 161.327 68.9606 161.168C72.0687 161.009 71.714 158.182 71.545 157.404C71.3761 156.626 70.9538 156.592 70.9538 156.592L71.1143 156.199L71.3086 155.973L71.1734 155.521L70.6498 154.869L70.7173 154.091L70.9792 153.572V152.861L70.1599 151.565L69.8643 150.887L69.6363 149.49L69.7376 147.223L70.2951 141.033L70.7511 136.398L70.8187 130.952C70.8187 130.952 74.4166 130.885 73.9606 127.221L72.9133 123.332H73.4031L71.013 109.002L70.2951 108.291L70.5569 107.638L70.4893 106.049L69.9995 104.944C69.9995 104.944 70.2613 96.9054 67.2461 95.249C67.2461 95.249 64.3323 93.8186 63.9691 92.6558C63.9691 92.6558 66.3931 86.2646 65.2444 83.3786C65.2444 83.3786 63.6059 79.8735 60.2698 79.5222H56.9675C56.9675 79.5222 54.3493 79.9739 53.2682 84.1231C52.1872 88.2723 53.4963 91.2922 53.927 92.2961C54.3577 93.2999 52.7193 93.4003 52.7193 93.4003C52.7193 93.4003 51.4439 92.0702 51.2497 88.7324C51.2497 88.7324 50.8274 84.6752 50.6923 83.9976C50.6585 83.8387 51.0216 81.145 49.7463 81.1785V79.5222L41.368 80.7184C41.368 80.7184 45.0335 80.685 45.8528 81.4295C46.672 82.174 45.8866 85.7711 45.8866 85.7711L45.5572 86.1308L45.7514 88.6237L45.422 89.1423L45.7177 93.944L46.5369 94.8559L46.4693 96.6711L46.6974 97.6081L47.9389 98.4864L48.3359 99.4568L49.7463 103.121L49.9406 104.576L50.1686 107.27L50.3037 109.052L49.8477 109.989L49.0622 111.126L48.5723 112.197V113.82L49.4592 114.632L49.2311 115.769L49.9152 116.514L49.8477 117.325L49.3578 118.521L49.2565 119.525L49.8477 120.044L49.6872 120.596L48.4457 121.734L46.8409 133.696L47.0352 134.767L47.7193 136.256L48.1754 137L48.1078 140.338L47.5842 143.417L47.0943 145.458L46.7987 147.173L46.6382 149.314L46.5707 151.974C46.5707 151.974 45.2278 153.338 45.3291 153.982V156.969L45.7514 157.454L44.569 158.458L45.7514 158.591L45.3291 159.788L45.7852 160.047L46.1484 160.666L46.3764 161.377V161.963L46.7734 162.481L47.2295 162.824L47.8545 163L50.2108 162.808H50.1855Z" fill="white"/>
<path d="M79.8726 159.738H80.8355C80.8355 159.738 81.5365 159.436 81.6209 159.001C81.7054 158.566 81.9081 157.337 81.9081 157.337L82.8709 156.341L82.9807 154.911L83.2848 153.438C83.2848 153.438 83.6817 151.882 83.6986 151.816C83.7155 151.749 83.9351 150.494 83.9351 150.494L83.8253 148.461L83.5212 146.253C83.5212 146.253 83.3017 144.672 83.327 144.613C83.3523 144.554 83.5212 143.124 83.5212 143.124L83.7155 141.334L83.8506 140.121L84.8557 139.276L85.2273 138.799L85.4047 137.419L85.8016 136.532L86.9587 134.784L88.1411 132.232C88.1411 132.232 89.1208 130.609 89.2137 130.501C89.3066 130.392 89.9992 129.806 89.9992 129.806L90.2357 129.89L90.6073 131.011L91.6124 133.111L92.288 134.541L93.4198 136.683L94.1208 137.912L94.8218 139.184L95.3708 140.246L95.9197 141.434L96.3336 142.296L96.7728 143.592L97.1444 144.764L97.516 145.91L97.7356 147.081C97.7356 147.081 97.8454 148.009 97.8454 148.118C97.8454 148.227 97.7356 149.498 97.7356 149.498L97.4484 150.511L97.1866 151.422L97.1191 152.351V153.564L97.9299 154.685L97.3386 156.91L98.994 157.621L100.371 158.274C100.371 158.274 102.161 160.783 104.323 160.499C104.323 160.499 108.293 160.783 106.79 158.466C106.79 158.466 104.323 155.48 102.989 154.576L103.293 154.275L103.403 152.719L103.622 152.092L104.34 150.971L103.884 148.377L103.031 144.011C103.031 144.011 102.372 140.556 102.372 140.447C102.372 140.338 101.545 135.972 101.519 135.863C101.494 135.754 101.038 133.378 101.038 133.378L101.122 132.6L101.258 132.232L101.3 126.418L100.599 125.423L100.252 124.386L100.117 123.114L100.143 120.738C100.143 120.738 99.4839 119.224 99.4839 119.157C99.4839 119.09 99.1967 118.488 99.1967 118.488L100.024 117.518L99.9822 116.932L99.6106 115.828L99.3065 115.159C99.3065 115.159 99.0869 112.691 99.1123 112.607C99.1376 112.523 99.2221 111.461 99.2221 111.461L99.2474 107.805L99.5346 102.987C99.5346 102.987 100.472 100.051 101.063 99.8918H104.357L106.562 100.126L108.327 100.452L109.72 100.779C109.72 100.779 110.59 100.862 110.658 100.887C110.725 100.912 111.621 100.737 111.705 100.712C111.789 100.687 112.423 100.168 112.423 100.168L112.575 99.691C112.575 99.691 112.55 96.6628 112.575 96.5791C112.6 96.4955 112.229 94.5463 112.229 94.5463L111.773 92.2793L111.73 91.3926L112.034 90.464L112.102 90.1629L111.443 89.2343V88.8244L108.648 91.2002L108.952 91.3926L109.214 91.5265L109.129 96.7799L107.144 96.805L106.165 96.2194C106.165 96.2194 104.898 95.157 103.301 95.157C103.301 95.157 100.945 94.5714 99.6106 93.1912C99.6106 93.1912 98.1072 92.3044 95.1174 93.0406C95.1174 93.0406 93.8505 93.1242 92.4147 91.3508C92.4147 91.3508 91.7137 90.7485 92.0853 89.1005L92.2374 88.1719L92.6934 87.5696L92.9553 87.1597L93.0397 86.2061L92.9046 85.6623L92.5583 85.2524L92.533 84.2402L85.8776 80.4758L84.4334 80.6097L84.1462 81.0196L83.5804 81.9063L82.1192 84.1733L82.4064 84.3239L83.3861 85.5118L83.4115 86.3567L83.3692 87.9126C83.3692 87.9126 83.8253 89.0168 84.8557 88.9081L84.9655 89.2343C84.9655 89.2343 85.7932 90.7903 86.604 91.4428L86.5786 92.4132C86.5786 92.4132 84.6108 92.2375 84.0871 92.2375C84.0871 92.2375 83.1665 90.9409 81.3591 90.3804C81.3591 90.3804 80.7003 90.188 80.2443 88.8244C80.2443 88.8244 79.9824 88.1552 77.9977 86.0137C77.9977 86.0137 77.4318 84.6752 77.6514 84.1148L77.7612 77.4141L77.9808 76.0338L76.6294 74.9965L74.7967 75.7327L74.6447 77.2217C74.6447 77.2217 73.7241 81.4378 73.7916 82.2576C73.7916 82.2576 73.7072 86.2981 74.7967 87.8792C74.7967 87.8792 78.9858 93.9106 78.876 95.6422C78.876 95.6422 80.4216 96.4202 81.3 98.1685C81.3 98.1685 81.7983 100.009 81.7138 100.979C81.7138 100.979 81.7561 103.338 82.2375 104.568C82.2375 104.568 82.1952 108.048 81.3676 110.106C81.3676 110.106 79.9064 114.364 79.9486 116.505L80.9115 116.999C80.9115 116.999 79.2054 121.341 78.7747 125.214C78.7747 125.214 78.0568 130.701 78.2088 132.843C78.2088 132.843 78.9098 133.445 78.9689 134.399C78.9689 134.399 79.1632 138.74 76.7899 141.811C76.7899 141.811 77.4909 145.659 77.4233 149.875L76.3507 150.887L77.7274 152.317L77.947 154.911C77.947 154.911 76.1142 157.027 76.7054 159.169C76.7054 159.169 77.1615 160.055 79.8895 159.729L79.8726 159.738Z" fill="white"/>
<path d="M111.08 89.6526L112.98 86.867L113.31 86.2814L112.854 85.6623L112.955 85.1437L113.318 84.7505V83.0022H112.406L109.357 82.6425C109.357 82.6425 106.773 87.2183 106.773 87.3438C106.773 87.4693 107.524 90.096 107.524 90.096L107.947 90.874C107.947 90.874 108.031 91.1333 108.344 91.1667C108.656 91.2002 109.062 91.1667 109.062 91.1667L111.089 89.6443L111.08 89.6526Z" fill="white"/>
<path d="M125.962 67.9696C125.784 67.9696 123.318 67.3422 122.972 67.9696C122.626 68.597 122.972 68.0784 122.972 68.0784C122.972 68.0784 122.82 68.3628 123.276 69.032C123.276 69.032 123.301 70.6131 122.904 71.4998C122.904 71.4998 122.448 72.4535 123.428 72.8215C123.428 72.8215 126.114 74.9631 126.57 76.0004C126.57 76.0004 127.178 77.4894 127.617 79.6728C127.617 79.6728 128.842 83.1778 130.058 84.2319C130.058 84.2319 133.022 89.661 133.614 89.937C133.614 89.937 134.897 91.836 134.855 93.3501C134.855 93.3501 136.561 94.2619 136.823 94.6467C137.085 95.0315 138.09 97.5662 138.436 98.0849C138.436 98.0849 138.723 100.461 138.74 102.602C138.74 102.602 138.208 110.215 137.482 114.297L138.073 114.69C138.073 114.69 138.107 116.505 137.093 118.973C137.093 118.973 135.717 123.415 135.852 124.645C135.852 124.645 135.066 130.024 135.556 133.01L135.657 135.085C135.657 135.085 133.529 139.46 133.69 139.945L133.588 145.977L134.213 149.674L133.918 152.853H134.441C134.441 152.853 133.428 155.22 132.676 155.513C132.676 155.513 130.708 158.106 132.414 158.433C132.414 158.433 134.281 159.144 136.51 158.433C136.51 158.433 137.034 158.625 138.048 155.873L139.619 155.806C139.619 155.806 140.142 149.741 139.391 147.892C139.391 147.892 139.255 143.316 140.404 141.894C140.404 141.894 144.956 130.768 145.514 130.609C145.514 130.609 147.051 127.79 147.71 127.757C147.71 127.757 148.596 128.986 149.348 131.32L150.852 134.198L152.389 137.87L153.698 140.915L154.711 143.768L154.906 145.617L154.61 149.507L154.906 155.346L157.718 155.998C157.718 155.998 158.639 158.525 161.84 158.433C161.84 158.433 164.652 158.591 164.458 157.496L164.323 156.324L160.522 153.112L160.919 152.819L161.02 150.812L161.316 150.034C161.316 150.034 161.84 148.67 161.84 148.578C161.84 148.486 161.907 147.666 161.907 147.666C161.907 147.666 161.35 146.47 161.316 146.336C161.282 146.202 161.088 144.747 161.088 144.747L161.02 143.124C161.02 143.124 161.155 141.275 159.416 136.348L159.348 129.664C159.348 129.664 159.12 124.285 159.052 124.185C158.985 124.084 158.233 121.625 158.233 121.625L158.073 120.169L158.14 119.751L157.583 119.074L158.107 118.421L158.174 117.484L157.321 117.292L157.389 115.602L156.569 114.046L158.596 113.494C158.596 113.494 158.824 112.323 156.24 105.906L156.08 94.7555C156.08 94.7555 157.583 92.1622 158.596 91.5432L160.1 88.0047C160.1 88.0047 164.838 81.7808 164.466 75.9753L165.868 75.2308L165.471 71.1736C165.471 71.1736 167.11 69.3917 166.975 68.5468C166.975 68.5468 166.84 68.1118 166.155 67.6936L166.223 65.1756L164.779 64.4646L159.348 68.5468L161.476 73.9258L161.704 74.6368C161.704 74.6368 160.26 85.2106 153.588 88.3225L152.144 88.2221L151.392 88.8746L150.767 88.6488L149.72 88.4564L149.23 88.0047V86.4152L149.982 85.93L149.948 84.6C149.948 84.6 151.156 84.3741 151.417 83.4288V82.0652L150.759 81.9983C150.759 81.9983 150.725 80.7017 151.156 80.5428V78.9533C151.156 78.9533 150.995 77.0042 148.377 76.2011L146.215 75.1638L144.314 76.2346C144.314 76.2346 141.561 77.6651 141.299 79.0872C141.299 79.0872 141.401 81.1953 141.662 81.9398V83.2364C141.662 83.2364 141.629 84.3072 142.904 84.1148L143.005 84.2737L143.039 85.4699C143.039 85.4699 143.698 86.0221 143.723 86.7666L143.757 88.2221C143.757 88.2221 143.723 89.226 142.38 89.134C142.38 89.134 139.103 89.5271 136.916 87.8708C136.916 87.8708 134.754 84.6 134.07 84.2402C134.07 84.2402 133.842 83.0105 129.712 76.3601C129.712 76.3601 127.946 73.0223 128.174 72.7128C128.402 72.4033 127.423 68.6723 127.423 68.6723L125.936 67.9696H125.962Z" fill="white"/>
<path d="M78.251 64.0546L71.4437 29.0373L25 35.6961L35.0421 81.6135H36.782L77.1278 75.3897L107.761 93.1075L124.171 57.3122V74.9965L165.809 74.4946L164.069 28L124.264 28.435V43.2166L93.1664 30.4176L78.251 64.0546Z" fill="white"/>
<path d="M62.905 50.3522L60.8779 36.7334L33.1165 42.1123L42.4153 74.344L66.4438 69.5507L66.7647 63.0592L56.03 65.7194L55.3713 60.8591L63.4962 59.6879L63.6228 53.598L54.1297 55.5387L53.7412 51.3226L62.905 50.3522Z" fill="#0345EF"/>
<path d="M80.7003 69.2579L101.519 44.6805L115.075 49.7332L109.636 80.0241L97.1951 75.4817L97.592 72.8717L90.582 73.474L90.261 68.8062L87.381 71.8512L80.7003 69.2579Z" fill="#D61616"/>
<path d="M98.4451 61.2439V68.6389L91.832 67.016L98.4451 61.2439Z" fill="white"/>
<path d="M153.377 47.8844C153.377 47.8844 146.308 48.47 145.455 54.7607V56.7684C145.455 56.7684 147.33 65.5269 159.205 61.2439L157.895 67.3422C157.895 67.3422 157.237 68.7058 154.492 68.6389H146.113C146.113 68.6389 130.793 66.3718 128.698 53.4641V49.248C128.698 49.248 129.416 31.1537 158.554 34.7843L159.213 48.2107L153.385 47.8844H153.377Z" fill="#FDC608"/>
</g>
</g>
<defs>
<clipPath id="clip0_746_301">
<rect width="192" height="192" fill="white"/>
</clipPath>
<clipPath id="clip1_746_301">
<rect width="142" height="135" fill="white" transform="translate(25 28)"/>
</clipPath>
</defs>
</svg>
