<svg width="512" height="512" viewBox="0 0 512 512" fill="none" xmlns="http://www.w3.org/2000/svg">
<g clip-path="url(#clip0_746_278)">
<path d="M448 0H64C28.6538 0 0 28.6538 0 64V448C0 483.346 28.6538 512 64 512H448C483.346 512 512 483.346 512 448V64C512 28.6538 483.346 0 448 0Z" fill="#141B34"/>
<g clip-path="url(#clip1_746_278)">
<path d="M118.557 459.42C118.557 459.42 120.026 460.504 121.318 454.048V445.751L123.979 443.203V440.278L124.866 436.066L128.793 427.668L129.781 422.674V413.772C129.781 413.772 130.262 396.673 133.328 394.226C133.328 394.226 143.159 372.815 143.539 368.124C143.539 368.124 143.058 358.742 145.516 359.044C145.516 359.044 147.188 359.826 147.973 364.315C147.973 364.315 152.99 385.727 157.019 392.764L157.5 395.79V422.195C157.5 422.195 156.816 427.189 158.97 431.199C158.97 431.199 163.683 440.379 166.343 442.346C166.343 442.346 165.558 454.956 174.882 454.477C184.206 453.998 183.142 445.473 182.635 443.128C182.128 440.782 180.861 440.681 180.861 440.681L181.343 439.496L181.926 438.815L181.52 437.453L179.949 435.486L180.152 433.141L180.938 431.577V429.433L178.48 425.524L177.593 423.481L176.909 419.27L177.213 412.435L178.885 393.772L180.253 379.8L180.456 363.382C180.456 363.382 191.25 363.18 189.882 352.134L186.74 340.407H188.209L181.039 297.205L178.885 295.061L179.671 293.094L179.468 288.302L177.998 284.973C177.998 284.973 178.784 260.737 169.738 255.743C169.738 255.743 160.997 251.431 159.907 247.925C159.907 247.925 167.179 228.657 163.733 219.956C163.733 219.956 158.818 209.389 148.81 208.33H138.903C138.903 208.33 131.048 209.692 127.805 222.201C124.562 234.71 128.489 243.814 129.781 246.841C131.073 249.867 126.158 250.17 126.158 250.17C126.158 250.17 122.332 246.16 121.749 236.097C121.749 236.097 120.482 223.865 120.077 221.823C119.975 221.343 121.065 213.223 117.239 213.323V208.33L92.1041 211.936C92.1041 211.936 103.101 211.835 105.558 214.08C108.016 216.325 105.66 227.169 105.66 227.169L104.672 228.254L105.254 235.769L104.266 237.333L105.153 251.809L107.611 254.558L107.408 260.031L108.092 262.855L111.817 265.504L113.008 268.429L117.239 279.475L117.822 283.864L118.506 291.985L118.911 297.356L117.543 300.181L115.187 303.611L113.717 306.839V311.732L116.377 314.178L115.693 317.608L117.746 319.853L117.543 322.299L116.073 325.905L115.769 328.932L117.543 330.495L117.062 332.16L113.337 335.59L108.523 371.654L109.106 374.883L111.158 379.372L112.526 381.616L112.323 391.679L110.753 400.96L109.283 407.114L108.396 412.284L107.915 418.74L107.712 426.76C107.712 426.76 103.683 430.871 103.987 432.813V441.816L105.254 443.279L101.707 446.306L105.254 446.709L103.987 450.316L105.356 451.097L106.445 452.964L107.129 455.107V456.873L108.32 458.436L109.688 459.47L111.563 460L118.633 459.42H118.557Z" fill="white"/>
<path d="M207.618 450.164H210.506C210.506 450.164 212.609 449.256 212.863 447.945C213.116 446.633 213.724 442.926 213.724 442.926L216.613 439.925L216.942 435.612L217.854 431.174C217.854 431.174 219.045 426.483 219.096 426.281C219.146 426.079 219.805 422.296 219.805 422.296L219.476 416.168L218.564 409.51C218.564 409.51 217.905 404.743 217.981 404.566C218.057 404.39 218.564 400.077 218.564 400.077L219.146 394.68L219.552 391.023L222.567 388.476L223.682 387.039L224.214 382.877L225.405 380.204L228.876 374.933L232.423 367.241C232.423 367.241 235.363 362.348 235.641 362.02C235.92 361.692 237.998 359.927 237.998 359.927L238.707 360.179L239.822 363.559L242.837 369.889L244.864 374.202L248.259 380.658L250.362 384.365L252.465 388.199L254.112 391.402L255.759 394.983L257.001 397.581L258.318 401.49L259.433 405.02L260.548 408.476L261.207 412.006C261.207 412.006 261.536 414.806 261.536 415.134C261.536 415.461 261.207 419.295 261.207 419.295L260.345 422.347L259.56 425.096L259.357 427.895V431.552L261.79 434.931L260.016 441.64L264.982 443.784L269.112 445.751C269.112 445.751 274.484 453.317 280.97 452.459C280.97 452.459 292.879 453.317 288.369 446.331C288.369 446.331 280.97 437.327 276.967 434.603L277.879 433.696L278.208 429.005L278.867 427.113L281.021 423.734L279.653 415.915L277.093 402.751C277.093 402.751 275.117 392.335 275.117 392.007C275.117 391.679 272.634 378.514 272.558 378.186C272.482 377.859 271.114 370.696 271.114 370.696L271.367 368.351L271.773 367.241L271.899 349.713L269.796 346.712L268.757 343.585L268.352 339.751L268.428 332.589C268.428 332.589 266.452 328.024 266.452 327.822C266.452 327.62 265.59 325.804 265.59 325.804L268.073 322.879L267.947 321.114L266.832 317.785L265.92 315.767C265.92 315.767 265.261 308.327 265.337 308.075C265.413 307.823 265.666 304.62 265.666 304.62L265.742 293.599L266.604 279.072C266.604 279.072 269.416 270.22 271.19 269.74H281.071L287.685 270.447L292.98 271.43L297.161 272.414C297.161 272.414 299.771 272.666 299.973 272.742C300.176 272.817 302.862 272.288 303.115 272.212C303.368 272.136 305.269 270.573 305.269 270.573L305.725 269.135C305.725 269.135 305.649 260.006 305.725 259.753C305.801 259.501 304.686 253.625 304.686 253.625L303.318 246.79L303.191 244.117L304.103 241.318L304.306 240.41L302.33 237.61V236.374L293.943 243.537L294.855 244.117L295.641 244.52L295.387 260.359L289.433 260.434L286.494 258.669C286.494 258.669 282.693 255.466 277.904 255.466C277.904 255.466 270.835 253.701 266.832 249.539C266.832 249.539 262.322 246.866 253.352 249.085C253.352 249.085 249.552 249.337 245.244 243.991C245.244 243.991 243.141 242.175 244.256 237.207L244.712 234.407L246.08 232.591L246.866 231.356L247.119 228.481L246.714 226.841L245.675 225.605L245.599 222.554L225.633 211.205L221.3 211.608L220.439 212.844L218.741 215.517L214.358 222.352L215.219 222.806L218.158 226.387L218.234 228.935L218.108 233.625C218.108 233.625 219.476 236.954 222.567 236.627L222.896 237.61C222.896 237.61 225.38 242.301 227.812 244.268L227.736 247.194C227.736 247.194 221.832 246.664 220.261 246.664C220.261 246.664 217.5 242.755 212.077 241.065C212.077 241.065 210.101 240.485 208.733 236.374C208.733 236.374 207.947 234.357 201.993 227.9C201.993 227.9 200.295 223.865 200.954 222.176L201.284 201.974L201.942 197.813L197.888 194.686L192.39 196.905L191.934 201.394C191.934 201.394 189.172 214.105 189.375 216.577C189.375 216.577 189.122 228.758 192.39 233.525C192.39 233.525 204.957 251.708 204.628 256.929C204.628 256.929 209.265 259.274 211.9 264.545C211.9 264.545 213.395 270.094 213.142 273.019C213.142 273.019 213.268 280.131 214.712 283.838C214.712 283.838 214.586 294.33 212.103 300.534C212.103 300.534 207.719 313.371 207.846 319.827L210.734 321.315C210.734 321.315 205.616 334.404 204.324 346.081C204.324 346.081 202.17 362.626 202.626 369.082C202.626 369.082 204.729 370.898 204.907 373.773C204.907 373.773 205.49 386.862 198.37 396.118C198.37 396.118 200.473 407.719 200.27 420.43L197.052 423.481L201.182 427.794L201.841 435.612C201.841 435.612 196.343 441.993 198.116 448.449C198.116 448.449 199.485 451.123 207.669 450.139L207.618 450.164Z" fill="white"/>
<path d="M301.24 238.871L306.941 230.473L307.929 228.708L306.561 226.841L306.865 225.278L307.955 224.092V218.821H305.218L296.071 217.737C296.071 217.737 288.318 231.532 288.318 231.911C288.318 232.289 290.573 240.208 290.573 240.208L291.84 242.553C291.84 242.553 292.093 243.335 293.031 243.436C293.968 243.537 295.184 243.436 295.184 243.436L301.265 238.846L301.24 238.871Z" fill="white"/>
<path d="M345.885 173.501C345.353 173.501 337.954 171.61 336.915 173.501C335.877 175.393 336.915 173.829 336.915 173.829C336.915 173.829 336.459 174.686 337.828 176.704C337.828 176.704 337.904 181.471 336.713 184.144C336.713 184.144 335.344 187.019 338.284 188.129C338.284 188.129 346.341 194.585 347.709 197.712C347.709 197.712 349.534 202.201 350.851 208.784C350.851 208.784 354.525 219.351 358.174 222.529C358.174 222.529 367.067 238.896 368.841 239.729C368.841 239.729 372.692 245.454 372.565 250.018C372.565 250.018 377.684 252.767 378.469 253.928C379.254 255.088 382.27 262.729 383.308 264.293C383.308 264.293 384.17 271.455 384.221 277.912C384.221 277.912 382.624 300.862 380.445 313.169L382.219 314.355C382.219 314.355 382.32 319.827 379.28 327.267C379.28 327.267 375.15 340.659 375.555 344.366C375.555 344.366 373.199 360.583 374.668 369.586L374.972 375.841C374.972 375.841 368.587 389.031 369.069 390.494L368.765 408.677L370.64 419.825L369.753 429.408H371.324C371.324 429.408 368.283 436.545 366.028 437.428C366.028 437.428 360.125 445.246 365.243 446.23C365.243 446.23 370.842 448.374 377.531 446.23C377.531 446.23 379.102 446.81 382.143 438.513L386.856 438.311C386.856 438.311 388.427 420.026 386.172 414.453C386.172 414.453 385.766 400.657 389.212 396.37C389.212 396.37 402.869 362.827 404.541 362.348C404.541 362.348 409.153 353.849 411.129 353.748C411.129 353.748 413.789 357.456 416.045 364.492L420.555 373.168L425.166 384.239L429.093 393.419L432.134 402.019L432.717 407.593L431.83 419.32L432.717 436.924L441.154 438.891C441.154 438.891 443.916 446.507 453.519 446.23C453.519 446.23 461.956 446.709 461.373 443.405L460.968 439.874L449.566 430.19L450.757 429.307L451.061 423.255L451.948 420.909C451.948 420.909 453.519 416.798 453.519 416.521C453.519 416.243 453.721 413.772 453.721 413.772C453.721 413.772 452.049 410.165 451.948 409.762C451.846 409.358 451.264 404.97 451.264 404.97L451.061 400.077C451.061 400.077 451.466 394.504 446.247 379.649L446.044 359.498C446.044 359.498 445.36 343.282 445.157 342.979C444.955 342.677 442.7 335.262 442.7 335.262L442.218 330.874L442.421 329.613L440.749 327.57L442.32 325.603L442.522 322.778L439.963 322.198L440.166 317.104L437.708 312.413L443.789 310.748C443.789 310.748 444.473 307.217 436.72 287.874L436.239 254.255C436.239 254.255 440.749 246.437 443.789 244.571L448.299 233.903C448.299 233.903 462.514 215.139 461.399 197.637L465.605 195.392L464.414 183.16C464.414 183.16 469.329 177.788 468.924 175.241C468.924 175.241 468.519 173.93 466.466 172.669L466.669 165.078L462.336 162.934L446.044 175.241L452.429 191.458L453.113 193.601C453.113 193.601 448.781 225.479 428.764 234.861L424.431 234.559L422.176 236.526L420.301 235.845L417.159 235.265L415.69 233.903V229.111L417.945 227.648L417.844 223.638C417.844 223.638 421.467 222.957 422.252 220.108V215.997L420.276 215.795C420.276 215.795 420.175 211.886 421.467 211.407V206.615C421.467 206.615 420.985 200.739 413.131 198.318L406.644 195.19L400.943 198.418C400.943 198.418 392.683 202.731 391.898 207.018C391.898 207.018 392.202 213.374 392.987 215.618V219.528C392.987 219.528 392.886 222.756 396.712 222.176L397.016 222.655L397.117 226.261C397.117 226.261 399.094 227.926 399.17 230.17L399.271 234.559C399.271 234.559 399.17 237.585 395.141 237.308C395.141 237.308 385.31 238.493 378.748 233.499C378.748 233.499 372.261 223.638 370.209 222.554C370.209 222.554 369.525 218.847 357.135 198.797C357.135 198.797 351.839 188.734 352.523 187.801C353.207 186.868 350.268 175.62 350.268 175.62L345.809 173.501H345.885Z" fill="white"/>
<path d="M202.753 161.698L182.331 56.1273L43 76.2024L73.1263 214.635H78.3459L199.383 195.871L291.283 249.287L340.513 141.371V194.686L465.427 193.173L460.208 53L340.792 54.3114V98.8751L247.499 60.2886L202.753 161.698Z" fill="white"/>
<path d="M156.715 120.388L150.634 79.3297L67.3494 95.5461L95.246 192.719L167.331 178.268L168.294 158.697L136.09 166.717L134.114 152.064L158.488 148.533L158.869 130.173L130.389 136.024L129.224 123.313L156.715 120.388Z" fill="#0345EF"/>
<path d="M210.101 177.385L272.558 103.289L313.225 118.521L296.907 209.843L259.585 196.149L260.776 188.28L239.746 190.096L238.783 176.023L230.143 185.203L210.101 177.385Z" fill="#D61616"/>
<path d="M263.335 153.224V175.519L243.496 170.626L263.335 153.224Z" fill="white"/>
<path d="M428.131 112.948C428.131 112.948 406.923 114.713 404.364 133.679V139.732C404.364 139.732 409.989 166.137 445.613 153.224L441.686 171.61C441.686 171.61 439.71 175.72 431.475 175.519H406.34C406.34 175.519 360.378 168.684 354.094 129.77V117.059C354.094 117.059 356.248 62.5079 443.662 73.4534L445.639 113.931L428.156 112.948H428.131Z" fill="#FDC608"/>
</g>
</g>
<defs>
<clipPath id="clip0_746_278">
<rect width="512" height="512" fill="white"/>
</clipPath>
<clipPath id="clip1_746_278">
<rect width="426" height="407" fill="white" transform="translate(43 53)"/>
</clipPath>
</defs>
</svg>
