<svg width="32" height="32" viewBox="0 0 32 32" fill="none" xmlns="http://www.w3.org/2000/svg">
<g clip-path="url(#clip0_746_316)">
<path d="M7.14257 28.9584C7.14257 28.9584 7.24337 29.0332 7.3293 28.5877V28.0159L7.50943 27.8414V27.6402L7.56892 27.351L7.83663 26.7725L7.90273 26.4301V25.8183C7.90273 25.8183 7.93578 24.6414 8.14399 24.4735C8.14399 24.4735 8.81326 23.0007 8.8397 22.6782C8.8397 22.6782 8.80665 22.0332 8.97356 22.0532C8.97356 22.0532 9.08758 22.1064 9.14046 22.4156C9.14046 22.4156 9.48088 23.8884 9.7552 24.3721L9.78825 24.5799V26.3952C9.78825 26.3952 9.74198 26.7376 9.88905 27.0135C9.88905 27.0135 10.2096 27.6452 10.3898 27.7799C10.3898 27.7799 10.3369 28.6476 10.9714 28.6143C11.606 28.5811 11.5333 27.996 11.5003 27.8347C11.4672 27.6735 11.3796 27.6668 11.3796 27.6668L11.4127 27.5854L11.4523 27.5388L11.4259 27.4441L11.3185 27.3094L11.3317 27.1482L11.3846 27.0401V26.8922L11.2177 26.6229L11.1582 26.4816L11.1119 26.1924L11.1317 25.7219L11.2458 24.4369L11.34 23.4745L11.3532 22.3441C11.3532 22.3441 12.0885 22.3308 11.9944 21.5711L11.7812 20.7649H11.882L11.3945 17.7927L11.2474 17.6447L11.3003 17.5101L11.2871 17.181L11.1863 16.9516C11.1863 16.9516 11.2392 15.2843 10.6244 14.9402C10.6244 14.9402 10.0295 14.6443 9.95515 14.4016C9.95515 14.4016 10.4493 13.0767 10.2162 12.4783C10.2162 12.4783 9.88244 11.7518 9.19995 11.6787H8.52407C8.52407 11.6787 7.98866 11.7734 7.76887 12.6329C7.54909 13.4923 7.81514 14.119 7.90273 14.3284C7.99031 14.5379 7.65485 14.5578 7.65485 14.5578C7.65485 14.5578 7.39375 14.2819 7.35409 13.5887C7.35409 13.5887 7.26816 12.7476 7.24007 12.6063C7.23346 12.573 7.30617 12.0145 7.04672 12.0211V11.6787L5.33472 11.928C5.33472 11.928 6.08331 11.9214 6.25021 12.076C6.41711 12.2306 6.25682 12.977 6.25682 12.977L6.19072 13.0518L6.23038 13.5704L6.16428 13.6785L6.22377 14.6742L6.39067 14.862L6.37745 15.2394L6.42372 15.4339L6.67821 15.6151L6.75919 15.8162L7.04672 16.5759L7.08638 16.8784L7.13265 17.4369L7.15909 17.8076L7.0649 18.0021L6.90461 18.2382L6.8038 18.4609V18.7967L6.98393 18.9646L6.93766 19.2007L7.07812 19.3553L7.0649 19.5232L6.9641 19.7725L6.94427 19.9803L7.0649 20.0883L7.03185 20.203L6.77736 20.4391L6.45016 22.9209L6.48983 23.1437L6.63029 23.4529L6.72448 23.6075L6.71126 24.3006L6.60385 24.939L6.50305 25.3629L6.44355 25.7186L6.4105 26.1624L6.39728 26.7143C6.39728 26.7143 6.12297 26.9969 6.1428 27.1316V27.7499L6.23038 27.8513L5.98911 28.0591L6.23038 28.0857L6.1428 28.3351L6.23699 28.3883L6.31135 28.5163L6.35762 28.6642V28.7856L6.4386 28.8936L6.53279 28.9651L6.66003 29L7.14092 28.9601L7.14257 28.9584Z" fill="#010101"/>
<path d="M13.2058 28.3218H13.4024C13.4024 28.3218 13.5445 28.2586 13.5627 28.1688C13.5809 28.0791 13.6205 27.8231 13.6205 27.8231L13.8172 27.6169L13.8387 27.3211L13.9015 27.0169C13.9015 27.0169 13.9824 26.6944 13.9858 26.6811C13.9891 26.6678 14.0353 26.4068 14.0353 26.4068L14.0138 25.9846L13.951 25.5274C13.951 25.5274 13.9064 25.1999 13.9114 25.1866C13.9163 25.1734 13.951 24.8775 13.951 24.8775L13.9907 24.5051L14.0172 24.2541L14.2221 24.0795L14.2981 23.9815L14.3344 23.6939L14.4154 23.5094L14.6517 23.147L14.893 22.6184C14.893 22.6184 15.0929 22.2826 15.1111 22.2593C15.1293 22.236 15.2714 22.1164 15.2714 22.1164L15.321 22.1346L15.397 22.3674L15.6019 22.8029L15.7407 23.0988L15.9721 23.5426L16.1142 23.7986L16.2563 24.0629L16.367 24.2824L16.4777 24.5284L16.562 24.7079L16.6513 24.9772L16.7273 25.2199L16.8033 25.4576L16.8479 25.7003C16.8479 25.7003 16.8694 25.8931 16.8694 25.9147C16.8694 25.9364 16.8479 26.2023 16.8479 26.2023L16.7901 26.4134L16.7372 26.6013L16.724 26.7941V27.0451L16.8892 27.2778L16.7686 27.74L17.1074 27.8879L17.3883 28.0226C17.3883 28.0226 17.7535 28.5429 18.1947 28.4847C18.1947 28.4847 19.0061 28.5429 18.6987 28.0625C18.6987 28.0625 18.1947 27.4441 17.9237 27.2562L17.9865 27.1931L18.008 26.8706L18.0526 26.7409L18.1997 26.5082L18.1055 25.9696L17.932 25.0636C17.932 25.0636 17.7981 24.3455 17.7981 24.3239C17.7981 24.3023 17.6296 23.3963 17.6246 23.3731C17.6196 23.3498 17.5271 22.8577 17.5271 22.8577L17.5453 22.6965L17.5717 22.62L17.58 21.4132L17.4379 21.2071L17.3668 20.9926L17.3404 20.7283L17.3453 20.2346C17.3453 20.2346 17.2115 19.9204 17.2115 19.9071C17.2115 19.8938 17.1536 19.7675 17.1536 19.7675L17.3222 19.5664L17.3139 19.445L17.2379 19.2156L17.1751 19.076C17.1751 19.076 17.1305 18.5657 17.1354 18.5474C17.1404 18.5291 17.1569 18.3097 17.1569 18.3097L17.1619 17.5516L17.2197 16.5526C17.2197 16.5526 17.4114 15.9425 17.5321 15.9109H18.2046L18.6541 15.9608L19.0144 16.0273L19.3002 16.0938C19.3002 16.0938 19.4787 16.1121 19.4919 16.1154C19.5052 16.1187 19.6886 16.0838 19.7051 16.0788C19.7216 16.0738 19.8522 15.9675 19.8522 15.9675L19.8836 15.8694C19.8836 15.8694 19.8786 15.241 19.8836 15.2244C19.8885 15.2078 19.8125 14.8022 19.8125 14.8022L19.7183 14.3317L19.7101 14.1472L19.7729 13.9544L19.7861 13.8912L19.6522 13.6984V13.6136L19.0821 14.1073L19.1449 14.1472L19.1978 14.1738L19.1796 15.2626L18.7747 15.2676L18.5748 15.1463C18.5748 15.1463 18.317 14.9269 17.9915 14.9269C17.9915 14.9269 17.5106 14.8055 17.2379 14.5196C17.2379 14.5196 16.9305 14.3351 16.3191 14.488C16.3191 14.488 16.0613 14.5063 15.7672 14.1389C15.7672 14.1389 15.625 14.0126 15.7011 13.6718L15.7325 13.479L15.8267 13.3526L15.8795 13.2679L15.8977 13.0701L15.8713 12.9587L15.8002 12.8739L15.7953 12.6628L14.4352 11.8832L14.1411 11.9098L14.0833 11.9945L13.9676 12.1791L13.6685 12.6495L13.7263 12.6811L13.9263 12.9271L13.9312 13.1016L13.923 13.4241C13.923 13.4241 14.0172 13.6535 14.2254 13.6303L14.2468 13.6967C14.2468 13.6967 14.4154 14.0192 14.5807 14.1539L14.5757 14.355C14.5757 14.355 14.1741 14.3184 14.0684 14.3184C14.0684 14.3184 13.8816 14.0492 13.5115 13.9328C13.5115 13.9328 13.3776 13.8929 13.2834 13.6103C13.2834 13.6103 13.2306 13.4707 12.824 13.0268C12.824 13.0268 12.7084 12.7492 12.753 12.6329L12.7745 11.2432L12.8191 10.9556L12.5431 10.7411L12.168 10.8941L12.1366 11.2033C12.1366 11.2033 11.9499 12.0777 11.9631 12.2472C11.9631 12.2472 11.9449 13.085 12.168 13.4125C12.168 13.4125 13.024 14.6642 13.0009 15.0216C13.0009 15.0216 13.3165 15.1829 13.495 15.5469C13.495 15.5469 13.5974 15.9276 13.5792 16.1304C13.5792 16.1304 13.5875 16.6191 13.6866 16.8751C13.6866 16.8751 13.6784 17.5965 13.5082 18.0221C13.5082 18.0221 13.2091 18.9048 13.219 19.3486L13.4156 19.4517C13.4156 19.4517 13.0686 20.3526 12.9794 21.1555C12.9794 21.1555 12.8323 22.2942 12.8637 22.7381C12.8637 22.7381 13.0058 22.8644 13.019 23.0606C13.019 23.0606 13.0587 23.9615 12.5729 24.5982C12.5729 24.5982 12.715 25.3961 12.7017 26.2705L12.4836 26.4816L12.7645 26.7775L12.8092 27.3161C12.8092 27.3161 12.434 27.7549 12.5547 28.1988C12.5547 28.1988 12.6489 28.3833 13.2058 28.3151V28.3218Z" fill="#010101"/>
<path d="M19.5795 13.7865L19.9678 13.208L20.0339 13.0867L19.9397 12.9587L19.9595 12.8506L20.0339 12.7692V12.4068H19.8488L19.2258 12.332C19.2258 12.332 18.697 13.2795 18.697 13.3078C18.697 13.336 18.8507 13.8796 18.8507 13.8796L18.9383 14.0408C18.9383 14.0408 18.9565 14.094 19.0193 14.1007C19.0821 14.1073 19.1663 14.1007 19.1663 14.1007L19.5811 13.7848L19.5795 13.7865Z" fill="#010101"/>
<path d="M22.6184 9.28996C22.5821 9.28996 22.0797 9.1603 22.007 9.28996C21.9343 9.41962 22.007 9.31157 22.007 9.31157C22.007 9.31157 21.9756 9.36975 22.0698 9.50938C22.0698 9.50938 22.0748 9.83686 21.9938 10.0197C21.9938 10.0197 21.8996 10.2175 22.1012 10.294C22.1012 10.294 22.6498 10.7378 22.7424 10.9523C22.7424 10.9523 22.868 11.2615 22.9555 11.7153C22.9555 11.7153 23.2051 12.4417 23.4546 12.6611C23.4546 12.6611 24.0611 13.7865 24.1817 13.8447C24.1817 13.8447 24.4445 14.2387 24.4362 14.5528C24.4362 14.5528 24.7832 14.7407 24.8378 14.8221C24.8923 14.9036 25.0956 15.4272 25.1683 15.5353C25.1683 15.5353 25.2261 16.029 25.2311 16.4728C25.2311 16.4728 25.122 18.0503 24.9749 18.8981L25.0956 18.9796C25.0956 18.9796 25.1022 19.3569 24.8956 19.8673C24.8956 19.8673 24.6147 20.7882 24.6411 21.0442C24.6411 21.0442 24.4808 22.1612 24.5816 22.7796L24.6015 23.2102C24.6015 23.2102 24.1668 24.1178 24.1999 24.2192L24.1801 25.4709L24.3073 26.2372L24.2478 26.8955H24.3552C24.3552 26.8955 24.1487 27.3859 23.995 27.4474C23.995 27.4474 23.5934 27.986 23.9421 28.0525C23.9421 28.0525 24.3238 28.2004 24.7783 28.0525C24.7783 28.0525 24.8857 28.0924 25.0922 27.5205L25.4128 27.5072C25.4128 27.5072 25.5202 26.2489 25.3666 25.8665C25.3666 25.8665 25.3401 24.919 25.5731 24.6231C25.5731 24.6231 26.5018 22.3158 26.6159 22.2826C26.6159 22.2826 26.9298 21.6975 27.0637 21.6908C27.0637 21.6908 27.2438 21.9468 27.3975 22.4305L27.7049 23.0273L28.0189 23.7887L28.2866 24.4203L28.4931 25.0121L28.5328 25.3961L28.4733 26.2023L28.5328 27.4125L29.1079 27.5471C29.1079 27.5471 29.2946 28.0724 29.9506 28.0508C29.9506 28.0508 30.5257 28.0841 30.4861 27.8563L30.4596 27.6136L29.6846 26.947L29.7656 26.8872L29.7854 26.47L29.8449 26.3087C29.8449 26.3087 29.9523 26.0261 29.9523 26.0062C29.9523 25.9862 29.9655 25.8183 29.9655 25.8183C29.9655 25.8183 29.8515 25.569 29.8449 25.5424C29.8383 25.5158 29.7986 25.2133 29.7986 25.2133L29.7854 24.8775C29.7854 24.8775 29.8118 24.4935 29.4582 23.4711L29.445 22.0864C29.445 22.0864 29.3987 20.9694 29.3855 20.9494C29.3723 20.9295 29.2186 20.4175 29.2186 20.4175L29.1855 20.1149L29.1987 20.0268L29.0847 19.8855L29.1921 19.7509L29.2054 19.5564L29.0318 19.5165L29.0451 19.1674L28.8782 18.8449L29.2929 18.7302C29.2929 18.7302 29.3392 18.4875 28.8121 17.156L28.779 14.8421C28.779 14.8421 29.0864 14.3035 29.2946 14.1755L29.602 13.4424C29.602 13.4424 30.5687 12.1508 30.4927 10.9473L30.7786 10.7927L30.6976 9.95156C30.6976 9.95156 31.0314 9.58086 31.0049 9.40632C31.0049 9.40632 30.9785 9.31489 30.838 9.23011L30.8513 8.70649L30.5571 8.55854L29.4466 9.40632L29.8812 10.5234L29.9275 10.6713C29.9275 10.6713 29.6334 12.8639 28.27 13.5089L27.9759 13.489L27.8222 13.6236L27.695 13.5771L27.4818 13.5372L27.381 13.4424V13.1133L27.5347 13.0119L27.5281 12.7359C27.5281 12.7359 27.7759 12.6894 27.8288 12.4932V12.2106L27.695 12.1973C27.695 12.1973 27.6883 11.928 27.7759 11.8948V11.5657C27.7759 11.5657 27.7429 11.1617 27.2075 10.9938L26.7662 10.7794L26.3779 11.0021C26.3779 11.0021 25.816 11.298 25.7632 11.5939C25.7632 11.5939 25.783 12.0311 25.8375 12.1857V12.455C25.8375 12.455 25.8309 12.6778 26.092 12.6362L26.1119 12.6694L26.1185 12.9188C26.1185 12.9188 26.2523 13.0335 26.2589 13.1881L26.2655 13.4906C26.2655 13.4906 26.2589 13.6984 25.9846 13.6785C25.9846 13.6785 25.3153 13.7599 24.8675 13.4158C24.8675 13.4158 24.4263 12.7359 24.2858 12.6628C24.2858 12.6628 24.2395 12.4068 23.3968 11.0287C23.3968 11.0287 23.0365 10.3356 23.0828 10.2724C23.1291 10.2092 22.9291 9.43458 22.9291 9.43458L22.6267 9.2883L22.6184 9.28996Z" fill="#010101"/>
<path d="M12.8752 8.47875L11.4854 1.21444L2 2.59582L4.05077 12.1192H4.40606L12.6455 10.8276L18.9019 14.5046L22.2532 7.07908V10.7478L30.7554 10.6431L30.4001 1L22.2714 1.08976V4.15673L15.9208 1.50202L12.8752 8.47875Z" fill="#010101"/>
<path d="M9.74038 5.63619L9.3256 2.81192L3.65747 3.92733L5.55621 10.6132L10.4625 9.61743L10.5303 8.27262L8.3374 8.82451L8.20354 7.81548L9.86102 7.57278L9.88746 6.30776L7.94905 6.71171L7.86808 5.83733L9.74038 5.63619Z" fill="#0345EF"/>
<path d="M13.3743 9.55593L17.6262 4.45927L20.3942 5.50819L19.2853 11.7901L16.7437 10.8475L16.8247 10.3073L15.3936 10.4303L15.3259 9.46284L14.7376 10.0945L13.3743 9.55593Z" fill="#D61616"/>
<path d="M16.9982 7.89527V9.42959L15.6481 9.09214L16.9982 7.89527Z" fill="#010101"/>
<path d="M28.2171 5.1242C28.2171 5.1242 26.7728 5.24555 26.5993 6.55046V6.9677C26.5993 6.9677 26.9827 8.78295 29.4069 7.89527L29.1392 9.16029C29.1392 9.16029 29.0054 9.44289 28.4435 9.42959H26.7315C26.7315 9.42959 23.6033 8.95915 23.1753 6.28283V5.40845C23.1753 5.40845 23.3224 1.65495 29.2731 2.40964L29.4069 5.19401L28.2171 5.12752V5.1242Z" fill="#FDC608"/>
</g>
<defs>
<clipPath id="clip0_746_316">
<rect width="29" height="28" fill="white" transform="translate(2 1)"/>
</clipPath>
</defs>
</svg>
