<svg width="200" height="120" viewBox="0 0 200 120" fill="none" xmlns="http://www.w3.org/2000/svg">
<g clip-path="url(#clip0_746_259)">
<path d="M200 0H0V120H200V0Z" fill="#141B34"/>
<rect x="15.5" y="22.5" width="169" height="60.6224" rx="16.5" stroke="white" stroke-width="3"/>
<rect x="14" y="21" width="60.551" height="63.6224" rx="17" fill="white"/>
<path d="M74.5511 38.6427L67.3157 29.1174L66.3128 29.9052L57.788 30.7646L54.7793 32.9132C54.1346 34.2501 52.7448 36.9955 52.3436 37.282C51.8422 37.6401 50.4095 41.6508 50.1945 42.7251C49.9796 43.7994 48.332 48.1681 47.8305 48.8127C47.3291 49.4573 46.8992 49.0276 45.8963 48.8127C44.8934 48.5979 38.5177 45.6615 37.9446 45.6615H32.2137L25.4082 46.7358L26.1962 49.7438L27.8439 53.8977L28.7035 61.9907L25.4082 76.0997L31.7839 84.6225H69.3216C72.9751 84.336 74.4078 81.6144 74.5511 79.3942V38.6427Z" fill="#E8E8E8"/>
<g clip-path="url(#clip1_746_259)">
<path d="M26.8581 77.311C26.8581 77.311 27.0328 77.44 27.1816 76.672V75.6863L27.4937 75.3854V75.0387L27.5967 74.5401L28.0605 73.543L28.175 72.9527V71.8982C28.175 71.8982 28.2323 69.8695 28.593 69.5801C28.593 69.5801 29.7525 67.0413 29.7983 66.4854C29.7983 66.4854 29.741 65.3736 30.0301 65.408C30.0301 65.408 30.2277 65.4997 30.3193 66.0327C30.3193 66.0327 30.909 68.5715 31.3843 69.4053L31.4415 69.7635V72.8925C31.4415 72.8925 31.3614 73.4828 31.6162 73.9585C31.6162 73.9585 32.1715 75.0473 32.4836 75.2794C32.4836 75.2794 32.392 76.7752 33.4913 76.7179C34.5906 76.6606 34.4647 75.6519 34.4074 75.374C34.3502 75.096 34.1984 75.0846 34.1984 75.0846L34.2557 74.9442L34.3244 74.8639L34.2786 74.7006L34.0925 74.4685L34.1154 74.1906L34.207 74.0043V73.7493L33.9179 73.2851L33.8148 73.0415L33.7346 72.5429L33.769 71.732L33.9665 69.5171L34.1297 67.858L34.1526 65.9095C34.1526 65.9095 35.4266 65.8865 35.2634 64.577L34.8941 63.1873H35.0687L34.2242 58.0639L33.9694 57.8089L34.061 57.5768L34.0381 57.0094L33.8635 56.614C33.8635 56.614 33.9551 53.74 32.8901 53.1468C32.8901 53.1468 31.8595 52.6368 31.7307 52.2184C31.7307 52.2184 32.5867 49.9347 32.183 48.9031C32.183 48.9031 31.6047 47.651 30.4224 47.5249H29.2515C29.2515 47.5249 28.3239 47.6882 27.9431 49.1696C27.5624 50.6511 28.0233 51.7313 28.175 52.0924C28.3268 52.4534 27.7456 52.4878 27.7456 52.4878C27.7456 52.4878 27.2933 52.0121 27.2246 50.8173C27.2246 50.8173 27.0757 49.3673 27.027 49.1238C27.0156 49.0665 27.1416 48.1037 26.6921 48.1152V47.5249L23.7262 47.9547C23.7262 47.9547 25.0231 47.9432 25.3122 48.2097C25.6013 48.4762 25.3237 49.7628 25.3237 49.7628L25.2091 49.8917L25.2779 50.7857L25.1633 50.972L25.2664 52.6884L25.5555 53.0122L25.5326 53.6626L25.6128 53.9979L26.0537 54.3102L26.194 54.6569L26.6921 55.9664L26.7608 56.4879L26.841 57.4507L26.8868 58.0897L26.7236 58.425L26.4459 58.8319L26.2713 59.2158V59.7946L26.5833 60.0841L26.5031 60.4909L26.7465 60.7574L26.7236 61.0468L26.5489 61.4767L26.5146 61.8348L26.7236 62.0211L26.6663 62.2188L26.2254 62.6257L25.6586 66.9038L25.7273 67.2877L25.9707 67.8207L26.1338 68.0872L26.1109 69.2821L25.9248 70.3824L25.7502 71.1131L25.6472 71.7263L25.5899 72.4914L25.567 73.4427C25.567 73.4427 25.0918 73.9298 25.1261 74.1619V75.2279L25.2779 75.4026L24.8599 75.7608L25.2779 75.8067L25.1261 76.2365L25.2893 76.3282L25.4181 76.5488L25.4983 76.8038V77.013L25.6386 77.1993L25.8017 77.3225L26.0222 77.3827L26.8553 77.3139L26.8581 77.311Z" fill="#181818"/>
<path d="M37.3618 76.2136H37.7024C37.7024 76.2136 37.9487 76.1047 37.9801 75.9499C38.0116 75.7952 38.0803 75.3539 38.0803 75.3539L38.421 74.9986L38.4582 74.4886L38.567 73.9642C38.567 73.9642 38.7073 73.4083 38.713 73.3854C38.7188 73.3625 38.7989 72.9126 38.7989 72.9126L38.7617 72.1848L38.6529 71.3968C38.6529 71.3968 38.5756 70.8323 38.5842 70.8094C38.5928 70.7864 38.6529 70.2764 38.6529 70.2764L38.7216 69.6345L38.7674 69.2019L39.1224 68.901L39.2541 68.7319L39.3171 68.2362L39.4574 67.9181L39.8667 67.2935L40.2847 66.3823C40.2847 66.3823 40.6311 65.8035 40.6626 65.7633C40.6941 65.7232 40.9403 65.5169 40.9403 65.5169L41.0262 65.5484L41.1579 65.9496L41.5129 66.7003L41.7534 67.2104L42.1541 67.9755L42.4004 68.4167L42.6466 68.8723L42.8384 69.2506L43.0302 69.6747L43.1762 69.9841L43.3308 70.4483L43.4625 70.8667L43.5942 71.2764L43.6714 71.6948C43.6714 71.6948 43.7087 72.0272 43.7087 72.0644C43.7087 72.1017 43.6714 72.5601 43.6714 72.5601L43.5712 72.9241L43.4796 73.2478L43.4567 73.5802V74.0129L43.743 74.4141L43.534 75.2107L44.1209 75.4657L44.6076 75.6978C44.6076 75.6978 45.2403 76.5947 46.0047 76.4944C46.0047 76.4944 47.4103 76.5947 46.8778 75.7666C46.8778 75.7666 46.0047 74.7006 45.5352 74.3768L45.6439 74.2679L45.6812 73.712L45.7585 73.4885L46.0132 73.0874L45.8501 72.159L45.5495 70.5973C45.5495 70.5973 45.3176 69.3595 45.3176 69.3222C45.3176 69.285 45.0256 67.7233 45.017 67.6832C45.0084 67.6431 44.8481 66.7949 44.8481 66.7949L44.8796 66.517L44.9254 66.3851L44.9397 64.3048L44.6935 63.9495L44.5704 63.5799L44.5246 63.1243L44.5332 62.2732C44.5332 62.2732 44.3013 61.7317 44.3013 61.7088C44.3013 61.6858 44.2011 61.4681 44.2011 61.4681L44.4931 61.1213L44.4788 60.9122L44.3471 60.5167L44.2383 60.276C44.2383 60.276 44.161 59.3964 44.1696 59.3648C44.1782 59.3333 44.2068 58.9551 44.2068 58.9551L44.2154 57.6484L44.3156 55.9263C44.3156 55.9263 44.6477 54.8747 44.8567 54.8203H46.0218L46.8005 54.9062L47.4246 55.0208L47.9199 55.1355C47.9199 55.1355 48.2291 55.167 48.252 55.1727C48.2749 55.1784 48.5927 55.1183 48.6213 55.1097C48.6499 55.1011 48.8761 54.9177 48.8761 54.9177L48.9305 54.7486C48.9305 54.7486 48.9219 53.6655 48.9305 53.6368C48.9391 53.6082 48.8074 52.909 48.8074 52.909L48.6442 52.0981L48.6299 51.78L48.7387 51.4477L48.7616 51.3388L48.5297 51.0064V50.8602L47.542 51.7113L47.6508 51.78L47.7424 51.8259L47.7109 53.7027L47.0095 53.7113L46.6631 53.5022C46.6631 53.5022 46.2165 53.1239 45.6525 53.1239C45.6525 53.1239 44.8194 52.9148 44.3471 52.4219C44.3471 52.4219 43.8146 52.1038 42.7553 52.3675C42.7553 52.3675 42.3087 52.399 41.7992 51.7657C41.7992 51.7657 41.553 51.5479 41.6846 50.9605L41.739 50.6281L41.9022 50.4104L41.9938 50.2642L42.0253 49.9232L41.9795 49.7313L41.8564 49.5851L41.8478 49.2212L39.4917 47.8773L38.9821 47.9232L38.8819 48.0693L38.6815 48.3874L38.1634 49.1983L38.2636 49.2527L38.61 49.6768L38.6186 49.9777L38.6042 50.5336C38.6042 50.5336 38.7674 50.929 39.1281 50.8889L39.1654 51.0035C39.1654 51.0035 39.4574 51.5594 39.7436 51.7915L39.7351 52.1382C39.7351 52.1382 39.0394 52.0752 38.8562 52.0752C38.8562 52.0752 38.5327 51.611 37.8914 51.4104C37.8914 51.4104 37.6595 51.3416 37.4963 50.8545C37.4963 50.8545 37.4047 50.6138 36.7005 49.8487C36.7005 49.8487 36.5001 49.3702 36.5774 49.1696L36.6146 46.7741L36.6919 46.2784L36.2138 45.9088L35.5639 46.1724L35.5095 46.7054C35.5095 46.7054 35.186 48.2126 35.2089 48.5049C35.2089 48.5049 35.1774 49.949 35.5639 50.5135C35.5639 50.5135 37.0469 52.6712 37.0068 53.2873C37.0068 53.2873 37.5536 53.5652 37.8628 54.1927C37.8628 54.1927 38.0403 54.8489 38.0088 55.1985C38.0088 55.1985 38.0231 56.0409 38.1949 56.4822C38.1949 56.4822 38.1805 57.7258 37.8857 58.4594C37.8857 58.4594 37.3675 59.9809 37.3847 60.746L37.7254 60.9236C37.7254 60.9236 37.1242 62.4767 36.9696 63.8607C36.9696 63.8607 36.7148 65.8235 36.7692 66.5886C36.7692 66.5886 37.0154 66.8064 37.0383 67.1445C37.0383 67.1445 37.107 68.6975 36.2653 69.795C36.2653 69.795 36.5115 71.1704 36.4886 72.6776L36.1107 73.0415L36.5974 73.5516L36.6747 74.48C36.6747 74.48 36.0248 75.2365 36.2338 76.0015C36.2338 76.0015 36.397 76.3196 37.3618 76.2021V76.2136Z" fill="#181818"/>
<path d="M48.4037 51.1582L49.0765 50.1611L49.191 49.9519L49.0278 49.7313L49.0622 49.545L49.191 49.4046V48.7799H48.8704L47.7911 48.651C47.7911 48.651 46.875 50.2843 46.875 50.333C46.875 50.3817 47.1412 51.3187 47.1412 51.3187L47.293 51.5967C47.293 51.5967 47.3245 51.6883 47.4333 51.6998C47.542 51.7113 47.688 51.6998 47.688 51.6998L48.4066 51.1554L48.4037 51.1582Z" fill="#181818"/>
<path d="M53.6684 43.4073C53.6055 43.4073 52.7352 43.1838 52.6092 43.4073C52.4832 43.6308 52.6092 43.4445 52.6092 43.4445C52.6092 43.4445 52.5548 43.5448 52.718 43.7855C52.718 43.7855 52.7266 44.35 52.5863 44.6652C52.5863 44.6652 52.4231 45.0062 52.7724 45.138C52.7724 45.138 53.7228 45.903 53.8832 46.2727C53.8832 46.2727 54.1007 46.8057 54.2525 47.5879C54.2525 47.5879 54.6847 48.8401 55.117 49.2183C55.117 49.2183 56.1677 51.1582 56.3767 51.2585C56.3767 51.2585 56.8319 51.9376 56.8176 52.4792C56.8176 52.4792 57.4187 52.803 57.5132 52.9434C57.6077 53.0838 57.9598 53.9864 58.0858 54.1727C58.0858 54.1727 58.186 55.0237 58.1946 55.7888C58.1946 55.7888 58.0056 58.5081 57.7508 59.9694L57.9598 60.1098C57.9598 60.1098 57.9713 60.7603 57.6134 61.64C57.6134 61.64 57.1267 63.2274 57.1725 63.6687C57.1725 63.6687 56.8949 65.5943 57.0695 66.6602L57.1038 67.4024C57.1038 67.4024 56.3509 68.9669 56.4082 69.1417L56.3738 71.2994L56.5943 72.6203L56.4912 73.755H56.6773C56.6773 73.755 56.3194 74.6003 56.0532 74.7063C56.0532 74.7063 55.3575 75.6347 55.9616 75.7494C55.9616 75.7494 56.6229 76.0044 57.4102 75.7494C57.4102 75.7494 57.5962 75.8181 57.9541 74.8324L58.5095 74.8095C58.5095 74.8095 58.6956 72.6404 58.4293 71.9813C58.4293 71.9813 58.3835 70.348 58.7872 69.838C58.7872 69.838 60.3961 65.8608 60.5936 65.8035C60.5936 65.8035 61.1376 64.7948 61.3695 64.7834C61.3695 64.7834 61.6815 65.2246 61.9477 66.0585L62.4802 67.0872L63.0242 68.3995L63.488 69.4884L63.8458 70.5085L63.9145 71.1704L63.8114 72.5601L63.9145 74.6462L64.9108 74.8783C64.9108 74.8783 65.2343 75.7837 66.3708 75.7465C66.3708 75.7465 67.3671 75.8038 67.2984 75.4112L67.2526 74.9929L65.9099 73.8439L66.0502 73.7407L66.0845 73.0215L66.1876 72.7435C66.1876 72.7435 66.3737 72.2564 66.3737 72.222C66.3737 72.1876 66.3966 71.8982 66.3966 71.8982C66.3966 71.8982 66.199 71.4684 66.1876 71.4226C66.1761 71.3767 66.1074 70.8552 66.1074 70.8552L66.0845 70.2764C66.0845 70.2764 66.1303 69.6145 65.5177 67.8522L65.4948 65.4653C65.4948 65.4653 65.4146 63.5398 65.3917 63.5054C65.3688 63.471 65.1026 62.5884 65.1026 62.5884L65.0453 62.0669L65.0682 61.9151L64.8707 61.6715L65.0568 61.4394L65.0797 61.1042L64.7791 61.0354L64.802 60.4336L64.5128 59.8777L65.2314 59.68C65.2314 59.68 65.3116 59.2617 64.3983 56.9665L64.3411 52.9778C64.3411 52.9778 64.8736 52.0494 65.2343 51.8288L65.7668 50.5651C65.7668 50.5651 67.4415 48.3387 67.3098 46.2641L67.8051 45.9976L67.6648 44.5477C67.6648 44.5477 68.2431 43.9087 68.1973 43.6078C68.1973 43.6078 68.1515 43.4502 67.9082 43.3041L67.9311 42.4015L67.4215 42.1465L65.4977 43.6078L66.2506 45.5334L66.3307 45.7884C66.3307 45.7884 65.8212 49.5679 63.4593 50.6797L62.9497 50.6453L62.6835 50.8774L62.4631 50.7972L62.0938 50.7284L61.9191 50.5651V49.9977L62.1854 49.823L62.1739 49.3473C62.1739 49.3473 62.6033 49.2671 62.6949 48.9289V48.4418L62.4631 48.4189C62.4631 48.4189 62.4516 47.9547 62.6033 47.8974V47.33C62.6033 47.33 62.5461 46.6337 61.6185 46.3443L60.8541 45.9747L60.1814 46.3587C60.1814 46.3587 59.208 46.8687 59.1164 47.3787C59.1164 47.3787 59.1508 48.1324 59.2452 48.3988V48.863C59.2452 48.863 59.2338 49.247 59.6861 49.1754L59.7205 49.2327L59.7319 49.6625C59.7319 49.6625 59.9638 49.8602 59.9753 50.1267L59.9867 50.6482C59.9867 50.6482 59.9753 51.0064 59.5 50.972C59.5 50.972 58.3406 51.1124 57.5648 50.5193C57.5648 50.5193 56.8004 49.3473 56.557 49.2212C56.557 49.2212 56.4769 48.7799 55.0168 46.4045C55.0168 46.4045 54.3927 45.2096 54.4729 45.1007C54.5531 44.9918 54.2067 43.6566 54.2067 43.6566L53.6828 43.4044L53.6684 43.4073Z" fill="#181818"/>
<path d="M36.7893 42.0089L34.3816 29.487L17.949 31.8682L21.5017 48.2842H22.1173L36.3913 46.0578L47.23 52.3961L53.0358 39.5962V45.9202L67.7651 45.7397L67.1496 29.1174L53.0673 29.2721V34.5588L42.0655 29.9827L36.7893 42.0089Z" fill="#181818"/>
<path d="M31.3585 37.109L30.6399 32.2407L20.8204 34.1634L24.1098 45.6881L32.6096 43.9717L32.7269 41.6536L28.928 42.6049L28.6961 40.8656L31.5675 40.4473L31.6133 38.2667L28.2552 38.963L28.1149 37.4558L31.3585 37.109Z" fill="#0345EF"/>
<path d="M37.6538 43.8657L45.0199 35.0803L49.8151 36.8884L47.8941 47.7169L43.4911 46.0922L43.6314 45.1609L41.1522 45.3729L41.0348 43.7053L40.0156 44.7941L37.6538 43.8657Z" fill="#D61616"/>
<path d="M43.932 41.0032V43.648L41.593 43.0663L43.932 41.0032Z" fill="#181818"/>
<path d="M63.3678 36.2265C63.3678 36.2265 60.8657 36.4357 60.5651 38.685V39.4043C60.5651 39.4043 61.2293 42.5333 65.429 41.0032L64.9653 43.1838C64.9653 43.1838 64.7334 43.6709 63.76 43.648H60.7941C60.7941 43.648 55.3748 42.837 54.6333 38.2237V36.7165C54.6333 36.7165 54.8881 30.2463 65.1971 31.5472L65.429 36.3468L63.3678 36.2322V36.2265Z" fill="#FDC608"/>
</g>
<path d="M94.2836 44.2551H90.3662C90.2399 44.2551 90.1978 44.1497 90.1978 44.0866V29.6807C90.1978 29.5754 90.2609 29.5122 90.3662 29.5122H94.2836C94.3679 29.5122 94.4521 29.5754 94.4521 29.6807V31.4709C94.4521 31.5762 94.3679 31.6183 94.2836 31.6183H92.4302V35.7042H94.2836C94.3679 35.7042 94.4521 35.7674 94.4521 35.8727V37.6629C94.4521 37.7893 94.3679 37.8314 94.2836 37.8314H92.4302V42.1279H94.2836C94.3679 42.1279 94.4521 42.1911 94.4521 42.2753V44.0866C94.4521 44.2129 94.3679 44.2551 94.2836 44.2551Z" fill="white"/>
<path d="M102.17 44.2551H100.275C100.148 44.2551 100.106 44.1497 100.106 44.0866L98.1265 37.0732V44.0866C98.1265 44.2129 98.0633 44.2551 97.958 44.2551H96.1046C95.9782 44.2551 95.9361 44.1497 95.9361 44.0866V29.6807C95.9361 29.5754 95.9993 29.5122 96.1046 29.5122H98.0001C98.1054 29.5122 98.1686 29.5754 98.1686 29.6807L100.148 36.6941V29.6807C100.148 29.5754 100.212 29.5122 100.317 29.5122H102.17C102.254 29.5122 102.339 29.5754 102.339 29.6807V44.0866C102.339 44.2129 102.254 44.2551 102.17 44.2551Z" fill="white"/>
<path d="M108.184 31.6394C108.184 31.5551 108.163 31.5341 108.079 31.5341H106.352C106.268 31.5341 106.247 31.5551 106.247 31.6394V42.1279C106.247 42.2121 106.268 42.2332 106.352 42.2332H108.079C108.163 42.2332 108.184 42.2121 108.184 42.1279V40.1692C108.184 40.0639 108.269 40.0217 108.353 40.0217H110.248C110.354 40.0217 110.417 40.0639 110.417 40.1692V42.2964C110.417 43.6022 109.954 44.3604 108.311 44.3604H106.184C104.499 44.3604 104.014 43.6022 104.014 42.3385V31.4709C104.014 30.1651 104.583 29.4069 106.141 29.4069H108.29C109.848 29.4069 110.417 30.1651 110.417 31.4498V33.4085C110.417 33.5138 110.354 33.556 110.248 33.556H108.353C108.269 33.556 108.184 33.5138 108.184 33.4085V31.6394Z" fill="white"/>
<path d="M113.855 44.3604C112.17 44.3604 111.686 43.6022 111.686 42.3385V31.4709C111.686 30.1651 112.255 29.4069 113.813 29.4069H115.961C117.52 29.4069 118.089 30.1651 118.089 31.4498V42.2964C118.089 43.6022 117.625 44.3604 115.982 44.3604H113.855ZM115.856 31.6394C115.856 31.5551 115.835 31.5341 115.751 31.5341H114.024C113.94 31.5341 113.918 31.5551 113.918 31.6394V42.1279C113.918 42.2121 113.94 42.2332 114.024 42.2332H115.751C115.835 42.2332 115.856 42.2121 115.856 42.1279V31.6394Z" fill="white"/>
<path d="M126.008 44.2551H124.113C123.986 44.2551 123.944 44.1497 123.944 44.0866L121.964 37.0732V44.0866C121.964 44.2129 121.901 44.2551 121.796 44.2551H119.942C119.816 44.2551 119.774 44.1497 119.774 44.0866V29.6807C119.774 29.5754 119.837 29.5122 119.942 29.5122H121.838C121.943 29.5122 122.006 29.5754 122.006 29.6807L123.986 36.6941V29.6807C123.986 29.5754 124.049 29.5122 124.155 29.5122H126.008C126.092 29.5122 126.177 29.5754 126.177 29.6807V44.0866C126.177 44.2129 126.092 44.2551 126.008 44.2551Z" fill="white"/>
<path d="M132.738 31.6183H131.117V44.0866C131.117 44.2129 131.053 44.2551 130.969 44.2551H129.053C128.947 44.2551 128.884 44.1497 128.884 44.0866V31.6183H127.283C127.157 31.6183 127.115 31.5341 127.115 31.4709V29.6807C127.115 29.5754 127.178 29.5122 127.283 29.5122H132.738C132.823 29.5122 132.907 29.5754 132.907 29.6807V31.4709C132.907 31.5762 132.823 31.6183 132.738 31.6183Z" fill="white"/>
<path d="M139.992 44.2551H137.885C137.759 44.2551 137.717 44.1497 137.717 44.0866L136.095 38.2737V44.0866C136.095 44.2129 136.032 44.2551 135.927 44.2551H134.031C133.905 44.2551 133.863 44.1497 133.863 44.0866V29.6807C133.863 29.5754 133.926 29.5122 134.031 29.5122H137.822C139.381 29.5122 139.949 30.2704 139.949 31.5551V35.8727C139.949 37.0521 139.57 37.7893 138.307 37.9156L140.16 44.0866C140.181 44.2129 140.097 44.2551 139.992 44.2551ZM137.612 31.6394H136.095V35.8095H137.612C137.696 35.8095 137.717 35.7884 137.717 35.7042V31.7447C137.717 31.6604 137.696 31.6394 137.612 31.6394Z" fill="white"/>
<path d="M143.514 44.3604C141.829 44.3604 141.344 43.6022 141.344 42.3385V31.4709C141.344 30.1651 141.913 29.4069 143.472 29.4069H145.62C147.178 29.4069 147.747 30.1651 147.747 31.4498V42.2964C147.747 43.6022 147.284 44.3604 145.641 44.3604H143.514ZM145.515 31.6394C145.515 31.5551 145.494 31.5341 145.409 31.5341H143.682C143.598 31.5341 143.577 31.5551 143.577 31.6394V42.1279C143.577 42.2121 143.598 42.2332 143.682 42.2332H145.409C145.494 42.2332 145.515 42.2121 145.515 42.1279V31.6394Z" fill="white"/>
<path d="M152.416 44.2551C152.353 44.2551 152.332 44.2024 152.332 44.1708V36.9679C152.332 36.9152 152.363 36.8836 152.416 36.8836H154.469C155.249 36.8836 155.533 37.2627 155.533 37.9051V43.2231C155.533 43.876 155.301 44.2551 154.48 44.2551H152.416ZM154.364 37.9472H153.448V43.1915H154.364C154.406 43.1915 154.417 43.1809 154.417 43.1388V37.9999C154.417 37.9577 154.406 37.9472 154.364 37.9472Z" fill="white"/>
<path d="M158.416 44.2551H156.457C156.394 44.2551 156.373 44.2024 156.373 44.1708V36.9679C156.373 36.9152 156.405 36.8836 156.457 36.8836H158.416C158.458 36.8836 158.5 36.9152 158.5 36.9679V37.863C158.5 37.9156 158.458 37.9367 158.416 37.9367H157.489V39.9796H158.416C158.458 39.9796 158.5 40.0112 158.5 40.0639V40.959C158.5 41.0222 158.458 41.0432 158.416 41.0432H157.489V43.1915H158.416C158.458 43.1915 158.5 43.2231 158.5 43.2652V44.1708C158.5 44.234 158.458 44.2551 158.416 44.2551Z" fill="white"/>
<path d="M91.9248 46.1857H94.0941C94.2204 46.1857 94.2626 46.291 94.2626 46.3542L96.6425 60.76C96.6425 60.8653 96.5793 60.9285 96.474 60.9285H94.4942C94.41 60.9285 94.3258 60.8653 94.3258 60.76L93.8413 57.2428H92.0933L91.5667 60.76C91.5667 60.8653 91.5036 60.9285 91.3982 60.9285H89.4185C89.3132 60.9285 89.25 60.8653 89.25 60.76L91.7563 46.3542C91.7563 46.291 91.7984 46.1857 91.9248 46.1857ZM93.02 51.0719L92.4092 55.1367H93.5676L93.02 51.0719Z" fill="white"/>
<path d="M97.75 60.9285C97.6236 60.9285 97.5815 60.8232 97.5815 60.76V46.3542C97.5815 46.2489 97.6447 46.1857 97.75 46.1857H101.857C103.415 46.1857 103.984 46.9439 103.984 48.2286V58.8645C103.984 60.1703 103.521 60.9285 101.878 60.9285H97.75ZM101.646 48.3129H99.814V58.8013H101.646C101.731 58.8013 101.752 58.7803 101.752 58.696V48.4182C101.752 48.3339 101.731 48.3129 101.646 48.3129Z" fill="white"/>
<path d="M107.623 61.0338C105.938 61.0338 105.454 60.2756 105.454 59.012V48.1444C105.454 46.8386 106.023 46.0804 107.581 46.0804H109.729C111.288 46.0804 111.857 46.8386 111.857 48.1233V58.9698C111.857 60.2756 111.393 61.0338 109.75 61.0338H107.623ZM109.624 48.3129C109.624 48.2286 109.603 48.2075 109.519 48.2075H107.792C107.708 48.2075 107.686 48.2286 107.686 48.3129V58.8013C107.686 58.8856 107.708 58.9066 107.792 58.9066H109.519C109.603 58.9066 109.624 58.8856 109.624 58.8013V48.3129Z" fill="white"/>
<path d="M117.796 60.9285H113.71C113.584 60.9285 113.542 60.8232 113.542 60.76V46.3542C113.542 46.2489 113.605 46.1857 113.71 46.1857H115.606C115.711 46.1857 115.774 46.2489 115.774 46.3542V58.8013H117.796C117.902 58.8013 117.965 58.8856 117.965 58.9698V60.76C117.965 60.8864 117.902 60.9285 117.796 60.9285Z" fill="white"/>
<path d="M122.996 60.9285H119.079C118.952 60.9285 118.91 60.8232 118.91 60.76V46.3542C118.91 46.2489 118.973 46.1857 119.079 46.1857H122.996C123.08 46.1857 123.164 46.2489 123.164 46.3542V48.1444C123.164 48.2497 123.08 48.2918 122.996 48.2918H121.143V52.3777H122.996C123.08 52.3777 123.164 52.4409 123.164 52.5462V54.3364C123.164 54.4627 123.08 54.5049 122.996 54.5049H121.143V58.8013H122.996C123.08 58.8013 123.164 58.8645 123.164 58.9488V60.76C123.164 60.8864 123.08 60.9285 122.996 60.9285Z" fill="white"/>
<path d="M124.23 52.5883V48.1444C124.23 46.8386 124.798 46.0804 126.357 46.0804H128.505C130.064 46.0804 130.632 46.8386 130.632 48.1233V50.082C130.632 50.1873 130.569 50.2294 130.464 50.2294H128.568C128.484 50.2294 128.4 50.1873 128.4 50.082V48.3129C128.4 48.2286 128.379 48.2075 128.295 48.2075H126.568C126.483 48.2075 126.462 48.2286 126.462 48.3129V52.3777C126.462 52.4619 126.483 52.483 126.568 52.483H128.505C130.169 52.483 130.632 53.2412 130.632 54.5049V58.9698C130.632 60.2756 130.169 61.0338 128.526 61.0338H126.399C124.714 61.0338 124.23 60.2756 124.23 59.012V56.8426C124.23 56.7373 124.293 56.6952 124.398 56.6952H126.294C126.378 56.6952 126.462 56.7373 126.462 56.8426V58.8013C126.462 58.8856 126.483 58.9066 126.568 58.9066H128.295C128.379 58.9066 128.4 58.8856 128.4 58.8013V54.7155C128.4 54.6312 128.379 54.6102 128.295 54.6102H126.357C124.841 54.6102 124.23 54.3153 124.23 52.5883Z" fill="white"/>
<path d="M136.177 48.3129C136.177 48.2286 136.156 48.2075 136.072 48.2075H134.345C134.26 48.2075 134.239 48.2286 134.239 48.3129V58.8013C134.239 58.8856 134.26 58.9066 134.345 58.9066H136.072C136.156 58.9066 136.177 58.8856 136.177 58.8013V56.8426C136.177 56.7373 136.261 56.6952 136.345 56.6952H138.241C138.346 56.6952 138.409 56.7373 138.409 56.8426V58.9698C138.409 60.2756 137.946 61.0338 136.303 61.0338H134.176C132.491 61.0338 132.007 60.2756 132.007 59.012V48.1444C132.007 46.8386 132.575 46.0804 134.134 46.0804H136.282C137.841 46.0804 138.409 46.8386 138.409 48.1233V50.082C138.409 50.1873 138.346 50.2294 138.241 50.2294H136.345C136.261 50.2294 136.177 50.1873 136.177 50.082V48.3129Z" fill="white"/>
<path d="M143.975 60.9285H140.058C139.931 60.9285 139.889 60.8232 139.889 60.76V46.3542C139.889 46.2489 139.952 46.1857 140.058 46.1857H143.975C144.059 46.1857 144.143 46.2489 144.143 46.3542V48.1444C144.143 48.2497 144.059 48.2918 143.975 48.2918H142.122V52.3777H143.975C144.059 52.3777 144.143 52.4409 144.143 52.5462V54.3364C144.143 54.4627 144.059 54.5049 143.975 54.5049H142.122V58.8013H143.975C144.059 58.8013 144.143 58.8645 144.143 58.9488V60.76C144.143 60.8864 144.059 60.9285 143.975 60.9285Z" fill="white"/>
<path d="M151.862 60.9285H149.966C149.84 60.9285 149.798 60.8232 149.798 60.76L147.818 53.7466V60.76C147.818 60.8864 147.755 60.9285 147.649 60.9285H145.796C145.67 60.9285 145.627 60.8232 145.627 60.76V46.3542C145.627 46.2489 145.691 46.1857 145.796 46.1857H147.691C147.797 46.1857 147.86 46.2489 147.86 46.3542L149.84 53.3675V46.3542C149.84 46.2489 149.903 46.1857 150.008 46.1857H151.862C151.946 46.1857 152.03 46.2489 152.03 46.3542V60.76C152.03 60.8864 151.946 60.9285 151.862 60.9285Z" fill="white"/>
<path d="M158.592 48.2918H156.97V60.76C156.97 60.8864 156.907 60.9285 156.823 60.9285H154.906C154.801 60.9285 154.738 60.8232 154.738 60.76V48.2918H153.137C153.011 48.2918 152.968 48.2075 152.968 48.1444V46.3542C152.968 46.2489 153.032 46.1857 153.137 46.1857H158.592C158.676 46.1857 158.76 46.2489 158.76 46.3542V48.1444C158.76 48.2497 158.676 48.2918 158.592 48.2918Z" fill="white"/>
<path d="M163.802 60.9285H159.885C159.758 60.9285 159.716 60.8232 159.716 60.76V46.3542C159.716 46.2489 159.779 46.1857 159.885 46.1857H163.802C163.886 46.1857 163.971 46.2489 163.971 46.3542V48.1444C163.971 48.2497 163.886 48.2918 163.802 48.2918H161.949V52.3777H163.802C163.886 52.3777 163.971 52.4409 163.971 52.5462V54.3364C163.971 54.4627 163.886 54.5049 163.802 54.5049H161.949V58.8013H163.802C163.886 58.8013 163.971 58.8645 163.971 58.9488V60.76C163.971 60.8864 163.886 60.9285 163.802 60.9285Z" fill="white"/>
<path d="M165.036 52.5883V48.1444C165.036 46.8386 165.604 46.0804 167.163 46.0804H169.311C170.87 46.0804 171.438 46.8386 171.438 48.1233V50.082C171.438 50.1873 171.375 50.2294 171.27 50.2294H169.374C169.29 50.2294 169.206 50.1873 169.206 50.082V48.3129C169.206 48.2286 169.185 48.2075 169.101 48.2075H167.374C167.289 48.2075 167.268 48.2286 167.268 48.3129V52.3777C167.268 52.4619 167.289 52.483 167.374 52.483H169.311C170.975 52.483 171.438 53.2412 171.438 54.5049V58.9698C171.438 60.2756 170.975 61.0338 169.332 61.0338H167.205C165.52 61.0338 165.036 60.2756 165.036 59.012V56.8426C165.036 56.7373 165.099 56.6952 165.204 56.6952H167.1C167.184 56.6952 167.268 56.7373 167.268 56.8426V58.8013C167.268 58.8856 167.289 58.9066 167.374 58.9066H169.101C169.185 58.9066 169.206 58.8856 169.206 58.8013V54.7155C169.206 54.6312 169.185 54.6102 169.101 54.6102H167.163C165.647 54.6102 165.036 54.3153 165.036 52.5883Z" fill="white"/>
<path d="M91.7036 71.0748C91.7036 71.0326 91.6931 71.0221 91.651 71.0221H90.7875C90.7453 71.0221 90.7348 71.0326 90.7348 71.0748V76.319C90.7348 76.3611 90.7453 76.3717 90.7875 76.3717H91.651C91.6931 76.3717 91.7036 76.3611 91.7036 76.319V75.3397C91.7036 75.287 91.7458 75.266 91.7879 75.266H92.7356C92.7883 75.266 92.8199 75.287 92.8199 75.3397V76.4033C92.8199 77.0562 92.5882 77.4353 91.7668 77.4353H90.7032C89.8608 77.4353 89.6186 77.0562 89.6186 76.4243V70.9905C89.6186 70.3376 89.9029 69.9585 90.6822 69.9585H91.7563C92.5356 69.9585 92.8199 70.3376 92.8199 70.98V71.9593C92.8199 72.012 92.7883 72.0331 92.7356 72.0331H91.7879C91.7458 72.0331 91.7036 72.012 91.7036 71.9593V71.0748Z" fill="white"/>
<path d="M94.5391 77.4353C93.6966 77.4353 93.4544 77.0562 93.4544 76.4243V70.9905C93.4544 70.3376 93.7388 69.9585 94.518 69.9585H95.5921C96.3714 69.9585 96.6557 70.3376 96.6557 70.98V76.4033C96.6557 77.0562 96.4241 77.4353 95.6027 77.4353H94.5391ZM95.5395 71.0748C95.5395 71.0326 95.529 71.0221 95.4868 71.0221H94.6233C94.5812 71.0221 94.5707 71.0326 94.5707 71.0748V76.319C94.5707 76.3611 94.5812 76.3717 94.6233 76.3717H95.4868C95.529 76.3717 95.5395 76.3611 95.5395 76.319V71.0748Z" fill="white"/>
<path d="M100.847 77.2984V73.6758L100.247 75.7188C100.226 75.7925 100.194 75.8767 100.11 75.8873H99.3308C99.2465 75.8767 99.2255 75.7925 99.1939 75.7188L98.5936 73.7074V77.2984C98.5936 77.3615 98.562 77.3826 98.5094 77.3826H97.5827C97.5195 77.3826 97.4984 77.33 97.4984 77.2984V70.0954C97.4984 70.0428 97.53 70.0112 97.5827 70.0112H98.4778C98.5936 70.0112 98.6041 70.0954 98.6252 70.1586L99.7204 73.9075L100.816 70.1586C100.837 70.0954 100.847 70.0112 100.974 70.0112H101.858C101.911 70.0112 101.942 70.0428 101.942 70.0954V77.2984C101.942 77.33 101.921 77.3826 101.858 77.3826H100.931C100.889 77.3826 100.847 77.3615 100.847 77.2984Z" fill="white"/>
<path d="M110.694 64.7669C110.694 64.6827 110.673 64.6616 110.588 64.6616H108.861C108.777 64.6616 108.756 64.6827 108.756 64.7669V75.2554C108.756 75.3397 108.777 75.3607 108.861 75.3607H110.588C110.673 75.3607 110.694 75.3397 110.694 75.2554V73.2967C110.694 73.1914 110.778 73.1493 110.862 73.1493H112.758C112.863 73.1493 112.926 73.1914 112.926 73.2967V75.4239C112.926 76.7297 112.463 77.4879 110.82 77.4879H108.693C107.008 77.4879 106.523 76.7297 106.523 75.466V64.5984C106.523 63.2926 107.092 62.5344 108.651 62.5344H110.799C112.357 62.5344 112.926 63.2926 112.926 64.5774V66.5361C112.926 66.6414 112.863 66.6835 112.758 66.6835H110.862C110.778 66.6835 110.694 66.6414 110.694 66.5361V64.7669Z" fill="white"/>
<path d="M120.535 77.3826H118.429C118.302 77.3826 118.26 77.2773 118.26 77.2141L116.638 71.4012V77.2141C116.638 77.3405 116.575 77.3826 116.47 77.3826H114.574C114.448 77.3826 114.406 77.2773 114.406 77.2141V62.8082C114.406 62.7029 114.469 62.6397 114.574 62.6397H118.365C119.924 62.6397 120.493 63.398 120.493 64.6827V69.0002C120.493 70.1797 120.113 70.9168 118.85 71.0432L120.703 77.2141C120.724 77.3405 120.64 77.3826 120.535 77.3826ZM118.155 64.7669H116.638V68.9371H118.155C118.239 68.9371 118.26 68.916 118.26 68.8318V64.8722C118.26 64.788 118.239 64.7669 118.155 64.7669Z" fill="white"/>
<path d="M124.265 77.3826H122.369C122.243 77.3826 122.201 77.2773 122.201 77.2141V62.8082C122.201 62.7029 122.264 62.6397 122.369 62.6397H124.265C124.37 62.6397 124.433 62.7029 124.433 62.8082V77.2141C124.433 77.3405 124.37 77.3826 124.265 77.3826Z" fill="white"/>
<path d="M126.019 69.0424V64.5984C126.019 63.2926 126.588 62.5344 128.146 62.5344H130.295C131.853 62.5344 132.422 63.2926 132.422 64.5774V66.5361C132.422 66.6414 132.359 66.6835 132.253 66.6835H130.358C130.273 66.6835 130.189 66.6414 130.189 66.5361V64.7669C130.189 64.6827 130.168 64.6616 130.084 64.6616H128.357C128.273 64.6616 128.252 64.6827 128.252 64.7669V68.8318C128.252 68.916 128.273 68.9371 128.357 68.9371H130.295C131.958 68.9371 132.422 69.6953 132.422 70.9589V75.4239C132.422 76.7297 131.958 77.4879 130.316 77.4879H128.188C126.504 77.4879 126.019 76.7297 126.019 75.466V73.2967C126.019 73.1914 126.082 73.1493 126.188 73.1493H128.083C128.167 73.1493 128.252 73.1914 128.252 73.2967V75.2554C128.252 75.3397 128.273 75.3607 128.357 75.3607H130.084C130.168 75.3607 130.189 75.3397 130.189 75.2554V71.1695C130.189 71.0853 130.168 71.0642 130.084 71.0642H128.146C126.63 71.0642 126.019 70.7694 126.019 69.0424Z" fill="white"/>
<path d="M138.477 64.7459H136.855V77.2141C136.855 77.3405 136.792 77.3826 136.708 77.3826H134.791C134.686 77.3826 134.622 77.2773 134.622 77.2141V64.7459H133.022C132.895 64.7459 132.853 64.6616 132.853 64.5984V62.8082C132.853 62.7029 132.916 62.6397 133.022 62.6397H138.477C138.561 62.6397 138.645 62.7029 138.645 62.8082V64.5984C138.645 64.7037 138.561 64.7459 138.477 64.7459Z" fill="white"/>
<path d="M141.354 77.4879C139.669 77.4879 139.185 76.7297 139.185 75.466V64.5984C139.185 63.2926 139.753 62.5344 141.312 62.5344H143.46C145.019 62.5344 145.587 63.2926 145.587 64.5774V75.4239C145.587 76.7297 145.124 77.4879 143.481 77.4879H141.354ZM143.355 64.7669C143.355 64.6827 143.334 64.6616 143.25 64.6616H141.523C141.438 64.6616 141.417 64.6827 141.417 64.7669V75.2554C141.417 75.3397 141.438 75.3607 141.523 75.3607H143.25C143.334 75.3607 143.355 75.3397 143.355 75.2554V64.7669Z" fill="white"/>
<path d="M15.0826 95.1627V97.3995H14V90.613H16.6524C17.1287 90.613 17.504 90.6854 17.7783 90.8302C18.0526 90.975 18.2474 91.2139 18.3629 91.5469C18.4856 91.8798 18.5469 92.3323 18.5469 92.9041C18.5469 93.7149 18.4134 94.294 18.1464 94.6415C17.8793 94.989 17.4355 95.1627 16.8148 95.1627H15.0826ZM15.0826 94.3049H16.6632C16.9447 94.3049 17.1396 94.2723 17.2478 94.2072C17.3561 94.142 17.4102 94.0226 17.4102 93.8488V91.9703C17.4102 91.7966 17.3561 91.6772 17.2478 91.612C17.1396 91.5469 16.9447 91.5143 16.6632 91.5143H15.0826V94.3049Z" fill="white"/>
<path d="M21.0183 97.5081C20.4264 97.5081 20.0006 97.385 19.7408 97.1389C19.4882 96.8855 19.3619 96.4657 19.3619 95.8793C19.3619 95.5029 19.398 95.2025 19.4701 94.9781C19.5423 94.7464 19.683 94.5727 19.8923 94.4569C20.1089 94.3338 20.4264 94.2542 20.845 94.218C21.2636 94.1746 21.8158 94.1529 22.5014 94.1529H22.9886V94.8587H21.2239C20.8847 94.8587 20.6538 94.9021 20.5311 94.989C20.4084 95.0758 20.347 95.2423 20.347 95.4884V96.672H21.7977C22.1369 96.672 22.3643 96.6286 22.4798 96.5417C22.6025 96.4548 22.6638 96.2883 22.6638 96.0422V92.839C22.3968 92.7594 22.0323 92.7196 21.5704 92.7196C21.2889 92.7196 20.993 92.7413 20.6826 92.7847C20.3723 92.8281 20.0583 92.8933 19.7408 92.9802L19.6 92.1875C19.7805 92.1223 19.9898 92.0644 20.2279 92.0138C20.4661 91.9631 20.7187 91.9269 20.9858 91.9052C21.2528 91.8762 21.509 91.8617 21.7544 91.8617C22.2452 91.8617 22.6349 91.9124 22.9236 92.0138C23.2196 92.1079 23.4289 92.2671 23.5516 92.4915C23.6815 92.7087 23.7464 93.0055 23.7464 93.3819V97.3995H23.2484L22.9561 96.8566C22.6963 97.081 22.4076 97.2475 22.09 97.3561C21.7797 97.4574 21.4224 97.5081 21.0183 97.5081Z" fill="white"/>
<path d="M26.149 91.9703L26.5279 92.8281C26.8527 92.5313 27.1305 92.3069 27.3615 92.1549C27.5924 91.9957 27.809 91.8798 28.011 91.8075L28.1193 92.8716C27.9677 92.915 27.8054 92.9765 27.6321 93.0562C27.4589 93.1286 27.2929 93.2082 27.1341 93.295C26.9826 93.3819 26.8454 93.4724 26.7227 93.5665V97.3995H25.6401V91.9703H26.149Z" fill="white"/>
<path d="M31.2803 97.5081C30.8112 97.5081 30.4215 97.4683 30.1111 97.3886C29.808 97.3018 29.5698 97.157 29.3966 96.9543C29.2234 96.7444 29.1007 96.4548 29.0285 96.0856C28.9636 95.7165 28.9311 95.2496 28.9311 94.6849C28.9311 94.1203 28.9636 93.6534 29.0285 93.2842C29.1007 92.915 29.2234 92.6291 29.3966 92.4264C29.5698 92.2165 29.808 92.0717 30.1111 91.992C30.4215 91.9052 30.8112 91.8617 31.2803 91.8617C31.7567 91.8617 32.1464 91.9052 32.4496 91.992C32.7599 92.0717 32.9981 92.2165 33.1641 92.4264C33.3373 92.6291 33.4564 92.915 33.5213 93.2842C33.5935 93.6461 33.6296 94.113 33.6296 94.6849C33.6296 95.2496 33.5935 95.7165 33.5213 96.0856C33.4564 96.4548 33.3373 96.7444 33.1641 96.9543C32.9909 97.157 32.7491 97.3018 32.4387 97.3886C32.1356 97.4683 31.7495 97.5081 31.2803 97.5081ZM30.057 96.6177H31.984C32.1933 96.6177 32.3305 96.5996 32.3954 96.5634C32.4676 96.5272 32.5037 96.4548 32.5037 96.3462V92.7521H30.5767C30.3746 92.7521 30.2374 92.7702 30.1653 92.8064C30.0931 92.8426 30.057 92.915 30.057 93.0236V96.6177ZM30.5983 91.2754L30.3601 90.9062L32.0057 89.7118C32.0418 89.6828 32.0707 89.6684 32.0923 89.6684C32.1212 89.6684 32.15 89.6865 32.1789 89.7227L32.6444 90.2981C32.695 90.3561 32.7202 90.3995 32.7202 90.4284C32.7202 90.4646 32.695 90.5045 32.6444 90.5479L32.3521 90.7868C32.3233 90.8157 32.2908 90.8374 32.2547 90.8519C32.2258 90.8664 32.1789 90.8809 32.114 90.8954L30.5983 91.2754Z" fill="white"/>
<path d="M36.8743 97.5624C36.4846 97.5624 36.1634 97.5189 35.9108 97.4321C35.6582 97.3452 35.4597 97.1968 35.3153 96.9869C35.171 96.777 35.07 96.4838 35.0122 96.1074C34.9545 95.7309 34.9256 95.2568 34.9256 94.6849C34.9256 94.113 34.9545 93.6461 35.0122 93.2842C35.07 92.915 35.1674 92.6291 35.3045 92.4264C35.4489 92.2165 35.6473 92.0717 35.9 91.992C36.1526 91.9052 36.4773 91.8617 36.8743 91.8617C37.3434 91.8617 37.7223 91.8979 38.011 91.9703C38.2997 92.0427 38.5199 92.1803 38.6714 92.3829C38.8302 92.5784 38.9385 92.8607 38.9962 93.2299C39.0539 93.5991 39.0828 94.0841 39.0828 94.6849C39.0828 95.293 39.0539 95.7852 38.9962 96.1617C38.9385 96.5381 38.8302 96.8276 38.6714 97.0303C38.5199 97.233 38.2997 97.3705 38.011 97.4429C37.7223 97.5226 37.3434 97.5624 36.8743 97.5624ZM36.0623 96.672H37.8811C38.076 96.672 38.2059 96.6539 38.2709 96.6177C38.343 96.5815 38.3791 96.5091 38.3791 96.4005V92.7521H36.5603C36.3727 92.7521 36.2428 92.7702 36.1706 92.8064C36.0984 92.8354 36.0623 92.8897 36.0623 92.9693V96.672ZM39.4617 99.1911L38.3791 99.3214V93.0562L38.9637 91.9703H39.4617V99.1911Z" fill="white"/>
<path d="M45.7012 91.9703V97.3995H45.2032L44.9109 96.8566C44.6222 97.081 44.3046 97.2475 43.9582 97.3561C43.619 97.4574 43.2292 97.5081 42.789 97.5081C42.2982 97.5081 41.9373 97.4176 41.7064 97.2366C41.4754 97.0484 41.3599 96.7589 41.3599 96.368V91.9703H42.4425V96.672H43.6984C44.0592 96.672 44.301 96.6286 44.4237 96.5417C44.5536 96.4548 44.6186 96.2883 44.6186 96.0422V91.9703H45.7012Z" fill="white"/>
<path d="M47.6517 92.0463L48.7343 91.8835V97.3995H47.6517V92.0463ZM48.2039 91.0257C47.9368 91.0257 47.7564 90.9822 47.6626 90.8954C47.576 90.8013 47.5326 90.6275 47.5326 90.3742C47.5326 90.1136 47.5796 89.9362 47.6734 89.8421C47.7672 89.748 47.944 89.7009 48.2039 89.7009C48.4565 89.7009 48.6261 89.748 48.7127 89.8421C48.8065 89.9362 48.8534 90.1136 48.8534 90.3742C48.8534 90.6275 48.8101 90.8013 48.7235 90.8954C48.6369 90.9822 48.4637 91.0257 48.2039 91.0257Z" fill="white"/>
<path d="M51.9635 97.5081C51.3716 97.5081 50.9458 97.385 50.686 97.1389C50.4334 96.8855 50.3071 96.4657 50.3071 95.8793C50.3071 95.5029 50.3432 95.2025 50.4153 94.9781C50.4875 94.7464 50.6283 94.5727 50.8376 94.4569C51.0541 94.3338 51.3716 94.2542 51.7902 94.218C52.2089 94.1746 52.761 94.1529 53.4466 94.1529H53.9338V94.8587H52.1692C51.8299 94.8587 51.599 94.9021 51.4763 94.989C51.3536 95.0758 51.2923 95.2423 51.2923 95.4884V96.672H52.7429C53.0822 96.672 53.3095 96.6286 53.425 96.5417C53.5477 96.4548 53.609 96.2883 53.609 96.0422V92.839C53.342 92.7594 52.9775 92.7196 52.5156 92.7196C52.2341 92.7196 51.9382 92.7413 51.6279 92.7847C51.3175 92.8281 51.0036 92.8933 50.686 92.9802L50.5453 92.1875C50.7257 92.1223 50.935 92.0644 51.1732 92.0138C51.4113 91.9631 51.6639 91.9269 51.931 91.9052C52.198 91.8762 52.4542 91.8617 52.6996 91.8617C53.1904 91.8617 53.5802 91.9124 53.8689 92.0138C54.1648 92.1079 54.3741 92.2671 54.4968 92.4915C54.6267 92.7087 54.6916 93.0055 54.6916 93.3819V97.3995H54.1936L53.9013 96.8566C53.6415 97.081 53.3528 97.2475 53.0352 97.3561C52.7249 97.4574 52.3676 97.5081 51.9635 97.5081Z" fill="white"/>
<path d="M59.346 97.3995V90.613H60.3961L63.016 94.8478C63.1243 95.0288 63.1965 95.1591 63.2326 95.2387C63.2686 95.3111 63.2903 95.4052 63.2975 95.521H63.3625V90.613H64.4451V97.3995H63.395L60.775 93.1647C60.6668 92.9838 60.5946 92.8571 60.5585 92.7847C60.5296 92.7051 60.508 92.6074 60.4936 92.4915H60.4286V97.3995H59.346Z" fill="white"/>
<path d="M68.4738 97.5081C68.0047 97.5081 67.6149 97.4683 67.3046 97.3886C67.0015 97.3018 66.7633 97.157 66.5901 96.9543C66.4169 96.7444 66.2942 96.4548 66.222 96.0856C66.157 95.7165 66.1246 95.2496 66.1246 94.6849C66.1246 94.1203 66.157 93.6534 66.222 93.2842C66.2942 92.915 66.4169 92.6291 66.5901 92.4264C66.7633 92.2165 67.0015 92.0717 67.3046 91.992C67.6149 91.9052 68.0047 91.8617 68.4738 91.8617C68.9502 91.8617 69.3399 91.9052 69.643 91.992C69.9534 92.0717 70.1916 92.2165 70.3576 92.4264C70.5308 92.6291 70.6499 92.915 70.7148 93.2842C70.787 93.6461 70.8231 94.113 70.8231 94.6849C70.8231 95.2496 70.787 95.7165 70.7148 96.0856C70.6499 96.4548 70.5308 96.7444 70.3576 96.9543C70.1843 97.157 69.9426 97.3018 69.6322 97.3886C69.3291 97.4683 68.9429 97.5081 68.4738 97.5081ZM67.2505 96.6177H69.1775C69.3868 96.6177 69.5239 96.5996 69.5889 96.5634C69.6611 96.5272 69.6972 96.4548 69.6972 96.3462V92.7521H67.7701C67.568 92.7521 67.4309 92.7702 67.3587 92.8064C67.2866 92.8426 67.2505 92.915 67.2505 93.0236V96.6177Z" fill="white"/>
<path d="M72.0758 93.4253C72.0758 92.868 72.2418 92.459 72.5738 92.1984C72.9058 91.9378 73.4218 91.8075 74.1219 91.8075C74.4467 91.8075 74.7534 91.8292 75.0421 91.8726C75.338 91.9088 75.6303 91.9667 75.919 92.0463L75.7675 92.839C75.587 92.7883 75.3741 92.7485 75.1287 92.7196C74.8905 92.6834 74.6632 92.6653 74.4467 92.6653C74.2157 92.6653 73.992 92.6761 73.7755 92.6978C73.5662 92.7123 73.3785 92.734 73.2125 92.763V94.0443C73.8404 94.1311 74.3492 94.2216 74.739 94.3157C75.1287 94.4026 75.4282 94.5112 75.6375 94.6415C75.8468 94.7718 75.9912 94.9347 76.0706 95.1301C76.15 95.3256 76.1897 95.5717 76.1897 95.8685C76.1897 96.2739 76.1139 96.6032 75.9623 96.8566C75.818 97.1027 75.5798 97.2837 75.2478 97.3995C74.9158 97.5081 74.4719 97.5624 73.9162 97.5624C73.5986 97.5624 73.2775 97.5334 72.9527 97.4755C72.6279 97.4248 72.2959 97.3488 71.9567 97.2475L72.1299 96.3788C72.6856 96.596 73.2775 96.7046 73.9054 96.7046C74.1219 96.7046 74.3095 96.6937 74.4683 96.672C74.6343 96.6503 74.8292 96.6105 75.0529 96.5526V95.2713C74.3889 95.1772 73.8585 95.0867 73.4615 94.9998C73.0645 94.9129 72.765 94.808 72.5629 94.6849C72.3681 94.5546 72.2382 94.3917 72.1732 94.1963C72.1082 93.9936 72.0758 93.7366 72.0758 93.4253Z" fill="white"/>
<path d="M77.2879 93.4253C77.2879 92.868 77.4539 92.459 77.7859 92.1984C78.1179 91.9378 78.634 91.8075 79.3341 91.8075C79.6588 91.8075 79.9656 91.8292 80.2543 91.8726C80.5502 91.9088 80.8425 91.9667 81.1312 92.0463L80.9796 92.839C80.7992 92.7883 80.5863 92.7485 80.3409 92.7196C80.1027 92.6834 79.8754 92.6653 79.6588 92.6653C79.4279 92.6653 79.2041 92.6761 78.9876 92.6978C78.7783 92.7123 78.5907 92.734 78.4247 92.763V94.0443C79.0526 94.1311 79.5614 94.2216 79.9511 94.3157C80.3409 94.4026 80.6404 94.5112 80.8497 94.6415C81.059 94.7718 81.2033 94.9347 81.2827 95.1301C81.3621 95.3256 81.4018 95.5717 81.4018 95.8685C81.4018 96.2739 81.326 96.6032 81.1745 96.8566C81.0301 97.1027 80.792 97.2837 80.46 97.3995C80.128 97.5081 79.6841 97.5624 79.1284 97.5624C78.8108 97.5624 78.4896 97.5334 78.1648 97.4755C77.8401 97.4248 77.5081 97.3488 77.1688 97.2475L77.3421 96.3788C77.8978 96.596 78.4896 96.7046 79.1175 96.7046C79.3341 96.7046 79.5217 96.6937 79.6805 96.672C79.8465 96.6503 80.0414 96.6105 80.2651 96.5526V95.2713C79.6011 95.1772 79.0706 95.0867 78.6737 94.9998C78.2767 94.9129 77.9772 94.808 77.7751 94.6849C77.5802 94.5546 77.4503 94.3917 77.3854 94.1963C77.3204 93.9936 77.2879 93.7366 77.2879 93.4253Z" fill="white"/>
<path d="M84.1456 97.5081C83.5538 97.5081 83.128 97.385 82.8682 97.1389C82.6156 96.8855 82.4893 96.4657 82.4893 95.8793C82.4893 95.5029 82.5253 95.2025 82.5975 94.9781C82.6697 94.7464 82.8104 94.5727 83.0197 94.4569C83.2363 94.3338 83.5538 94.2542 83.9724 94.218C84.391 94.1746 84.9432 94.1529 85.6288 94.1529H86.116V94.8587H84.3513C84.0121 94.8587 83.7812 94.9021 83.6585 94.989C83.5358 95.0758 83.4744 95.2423 83.4744 95.4884V96.672H84.9251C85.2643 96.672 85.4917 96.6286 85.6072 96.5417C85.7299 96.4548 85.7912 96.2883 85.7912 96.0422V92.839C85.5242 92.7594 85.1597 92.7196 84.6978 92.7196C84.4163 92.7196 84.1204 92.7413 83.81 92.7847C83.4997 92.8281 83.1857 92.8933 82.8682 92.9802L82.7274 92.1875C82.9079 92.1223 83.1172 92.0644 83.3553 92.0138C83.5935 91.9631 83.8461 91.9269 84.1132 91.9052C84.3802 91.8762 84.6364 91.8617 84.8818 91.8617C85.3726 91.8617 85.7623 91.9124 86.051 92.0138C86.3469 92.1079 86.5562 92.2671 86.6789 92.4915C86.8089 92.7087 86.8738 93.0055 86.8738 93.3819V97.3995H86.3758L86.0835 96.8566C85.8237 97.081 85.535 97.2475 85.2174 97.3561C84.9071 97.4574 84.5498 97.5081 84.1456 97.5081Z" fill="white"/>
<path d="M91.1601 96.4114C91.4488 96.4838 91.7844 96.5453 92.1669 96.596C92.5567 96.6394 92.9283 96.6611 93.282 96.6611C93.4624 96.6611 93.6393 96.6575 93.8125 96.6503C93.9929 96.643 94.2239 96.6249 94.5053 96.596V94.5763L93.4769 94.5003C92.9933 94.4641 92.5964 94.4098 92.286 94.3374C91.9757 94.2578 91.7303 94.1492 91.5498 94.0117C91.3766 93.8669 91.2539 93.6787 91.1817 93.4471C91.1168 93.2154 91.0843 92.9222 91.0843 92.5675C91.0843 92.0463 91.1493 91.6337 91.2792 91.3297C91.4163 91.0184 91.6364 90.794 91.9396 90.6565C92.2427 90.5189 92.6433 90.4502 93.1413 90.4502C93.5166 90.4502 93.881 90.4683 94.2347 90.5045C94.5883 90.5334 94.9528 90.5841 95.3281 90.6565L95.1874 91.5143C94.8698 91.4564 94.5559 91.4166 94.2455 91.3948C93.9352 91.3659 93.5887 91.3514 93.2062 91.3514C92.9969 91.3514 92.8273 91.355 92.6974 91.3623C92.5675 91.3695 92.4231 91.384 92.2644 91.4057V93.4471L93.466 93.5231C94.0362 93.5593 94.4801 93.6461 94.7976 93.7837C95.1224 93.914 95.3498 94.1203 95.4797 94.4026C95.6168 94.6849 95.6854 95.0686 95.6854 95.5536C95.6854 96.0531 95.606 96.4512 95.4472 96.748C95.2884 97.0376 95.025 97.2475 94.6569 97.3778C94.296 97.5008 93.8053 97.5624 93.1846 97.5624C92.802 97.5624 92.434 97.5407 92.0803 97.4972C91.7267 97.461 91.3658 97.3959 90.9977 97.3018L91.1601 96.4114Z" fill="white"/>
<path d="M98.8634 97.5081C98.452 97.5081 98.1092 97.4647 97.835 97.3778C97.5607 97.2909 97.3442 97.1425 97.1854 96.9326C97.0338 96.7227 96.9256 96.4367 96.8606 96.0748C96.7957 95.7056 96.7632 95.2423 96.7632 94.6849C96.7632 93.9683 96.8317 93.4036 96.9689 92.991C97.106 92.5784 97.3406 92.2888 97.6726 92.1223C98.0118 91.9486 98.4701 91.8617 99.0475 91.8617C99.6176 91.8617 100.058 91.9088 100.368 92.0029C100.686 92.097 100.906 92.2635 101.029 92.5024C101.151 92.734 101.213 93.0634 101.213 93.4905C101.213 93.8669 101.173 94.171 101.094 94.4026C101.021 94.627 100.87 94.8007 100.639 94.9238C100.415 95.0396 100.083 95.1193 99.6429 95.1627C99.2099 95.1989 98.6289 95.217 97.8999 95.217H97.5751V94.5112H99.329C99.6826 94.5112 99.9208 94.4677 100.043 94.3809C100.173 94.294 100.238 94.1275 100.238 93.8814V92.7521H98.7985C98.452 92.7521 98.2139 92.7956 98.084 92.8824C97.9613 92.9693 97.8999 93.1358 97.8999 93.3819V96.5308C98.0587 96.5743 98.2283 96.6068 98.4087 96.6286C98.5892 96.643 98.8057 96.6503 99.0583 96.6503C99.347 96.6503 99.6321 96.6322 99.9136 96.596C100.195 96.5526 100.534 96.4838 100.931 96.3897L101.072 97.1823C100.805 97.2837 100.473 97.3633 100.076 97.4212C99.6862 97.4791 99.282 97.5081 98.8634 97.5081Z" fill="white"/>
<path d="M102.945 97.3995V91.9703H103.443L103.735 92.5132C104.01 92.2888 104.309 92.126 104.634 92.0246C104.959 91.916 105.33 91.8617 105.749 91.8617C106.254 91.8617 106.637 91.9414 106.897 92.1006C107.156 92.2526 107.286 92.4807 107.286 92.7847V97.3995H106.204V92.7521H104.948C104.594 92.7521 104.352 92.7956 104.223 92.8824C104.093 92.9693 104.028 93.1358 104.028 93.3819V97.3995H102.945Z" fill="white"/>
<path d="M109.183 97.3995V90.2656L110.244 90.1787V92.3287C110.475 92.1622 110.727 92.0427 111.001 91.9703C111.283 91.8979 111.611 91.8617 111.987 91.8617C112.492 91.8617 112.874 91.9414 113.134 92.1006C113.394 92.2526 113.524 92.4807 113.524 92.7847V97.3995H112.441V92.7521H111.186C110.832 92.7521 110.59 92.7956 110.46 92.8824C110.33 92.9693 110.265 93.1358 110.265 93.3819V97.3995H109.183Z" fill="white"/>
<path d="M117.445 97.5081C116.976 97.5081 116.586 97.4683 116.276 97.3886C115.973 97.3018 115.734 97.157 115.561 96.9543C115.388 96.7444 115.265 96.4548 115.193 96.0856C115.128 95.7165 115.096 95.2496 115.096 94.6849C115.096 94.1203 115.128 93.6534 115.193 93.2842C115.265 92.915 115.388 92.6291 115.561 92.4264C115.734 92.2165 115.973 92.0717 116.276 91.992C116.586 91.9052 116.976 91.8617 117.445 91.8617C117.921 91.8617 118.311 91.9052 118.614 91.992C118.924 92.0717 119.163 92.2165 119.329 92.4264C119.502 92.6291 119.621 92.915 119.686 93.2842C119.758 93.6461 119.794 94.113 119.794 94.6849C119.794 95.2496 119.758 95.7165 119.686 96.0856C119.621 96.4548 119.502 96.7444 119.329 96.9543C119.155 97.157 118.914 97.3018 118.603 97.3886C118.3 97.4683 117.914 97.5081 117.445 97.5081ZM116.222 96.6177H118.149C118.358 96.6177 118.495 96.5996 118.56 96.5634C118.632 96.5272 118.668 96.4548 118.668 96.3462V92.7521H116.741C116.539 92.7521 116.402 92.7702 116.33 92.8064C116.258 92.8426 116.222 92.915 116.222 93.0236V96.6177Z" fill="white"/>
<path d="M121.924 91.9703L122.303 92.8281C122.627 92.5313 122.905 92.3069 123.136 92.1549C123.367 91.9957 123.584 91.8798 123.786 91.8075L123.894 92.8716C123.742 92.915 123.58 92.9765 123.407 93.0562C123.234 93.1286 123.068 93.2082 122.909 93.295C122.757 93.3819 122.62 93.4724 122.497 93.5665V97.3995H121.415V91.9703H121.924Z" fill="white"/>
<path d="M126.308 97.5081C125.716 97.5081 125.29 97.385 125.031 97.1389C124.778 96.8855 124.652 96.4657 124.652 95.8793C124.652 95.5029 124.688 95.2025 124.76 94.9781C124.832 94.7464 124.973 94.5727 125.182 94.4569C125.399 94.3338 125.716 94.2542 126.135 94.218C126.553 94.1746 127.106 94.1529 127.791 94.1529H128.278V94.8587H126.514C126.175 94.8587 125.944 94.9021 125.821 94.989C125.698 95.0758 125.637 95.2423 125.637 95.4884V96.672H127.088C127.427 96.672 127.654 96.6286 127.77 96.5417C127.892 96.4548 127.954 96.2883 127.954 96.0422V92.839C127.687 92.7594 127.322 92.7196 126.86 92.7196C126.579 92.7196 126.283 92.7413 125.972 92.7847C125.662 92.8281 125.348 92.8933 125.031 92.9802L124.89 92.1875C125.07 92.1223 125.28 92.0644 125.518 92.0138C125.756 91.9631 126.009 91.9269 126.276 91.9052C126.543 91.8762 126.799 91.8617 127.044 91.8617C127.535 91.8617 127.925 91.9124 128.213 92.0138C128.509 92.1079 128.719 92.2671 128.841 92.4915C128.971 92.7087 129.036 93.0055 129.036 93.3819V97.3995H128.538L128.246 96.8566C127.986 97.081 127.697 97.2475 127.38 97.3561C127.07 97.4574 126.712 97.5081 126.308 97.5081Z" fill="white"/>
<path d="M132.825 97.3995L134.827 90.613H136.462L138.465 97.3995H137.382L135.693 91.612H135.596L133.907 97.3995H132.825ZM133.821 95.8793V95.0215H137.491V95.8793H133.821Z" fill="white"/>
<path d="M143.886 91.9703V97.3995H143.388L143.096 96.8566C142.807 97.081 142.49 97.2475 142.143 97.3561C141.804 97.4574 141.414 97.5081 140.974 97.5081C140.483 97.5081 140.123 97.4176 139.892 97.2366C139.661 97.0484 139.545 96.7589 139.545 96.368V91.9703H140.628V96.672H141.884C142.244 96.672 142.486 96.6286 142.609 96.5417C142.739 96.4548 142.804 96.2883 142.804 96.0422V91.9703H143.886Z" fill="white"/>
<path d="M148.901 97.3995L145.198 91.9703H146.357L150.059 97.3995H148.901ZM145.144 97.3995L147.071 94.4352L147.71 95.141L146.292 97.3995H145.144ZM148.067 94.9347L147.439 94.2289L148.857 91.9703H150.005L148.067 94.9347Z" fill="white"/>
<path d="M151.313 92.0463L152.396 91.8835V97.3995H151.313V92.0463ZM151.866 91.0257C151.599 91.0257 151.418 90.9822 151.324 90.8954C151.238 90.8013 151.194 90.6275 151.194 90.3742C151.194 90.1136 151.241 89.9362 151.335 89.8421C151.429 89.748 151.606 89.7009 151.866 89.7009C152.118 89.7009 152.288 89.748 152.374 89.8421C152.468 89.9362 152.515 90.1136 152.515 90.3742C152.515 90.6275 152.472 90.8013 152.385 90.8954C152.299 90.9822 152.125 91.0257 151.866 91.0257Z" fill="white"/>
<path d="M155.376 96.596C155.441 96.6032 155.517 96.6141 155.604 96.6286C155.697 96.6358 155.788 96.643 155.874 96.6503L155.809 97.3886C155.665 97.4321 155.535 97.461 155.419 97.4755C155.311 97.4972 155.203 97.5081 155.095 97.5081C154.828 97.5081 154.626 97.4429 154.488 97.3126C154.359 97.1751 154.294 96.9688 154.294 96.6937V90.3416L155.376 90.1787V96.596Z" fill="white"/>
<path d="M157.287 92.0463L158.369 91.8835V97.3995H157.287V92.0463ZM157.839 91.0257C157.572 91.0257 157.391 90.9822 157.298 90.8954C157.211 90.8013 157.168 90.6275 157.168 90.3742C157.168 90.1136 157.215 89.9362 157.308 89.8421C157.402 89.748 157.579 89.7009 157.839 89.7009C158.092 89.7009 158.261 89.748 158.348 89.8421C158.442 89.9362 158.489 90.1136 158.489 90.3742C158.489 90.6275 158.445 90.8013 158.359 90.8954C158.272 90.9822 158.099 91.0257 157.839 91.0257Z" fill="white"/>
<path d="M161.599 97.5081C161.007 97.5081 160.581 97.385 160.321 97.1389C160.068 96.8855 159.942 96.4657 159.942 95.8793C159.942 95.5029 159.978 95.2025 160.05 94.9781C160.123 94.7464 160.263 94.5727 160.473 94.4569C160.689 94.3338 161.007 94.2542 161.425 94.218C161.844 94.1746 162.396 94.1529 163.082 94.1529H163.569V94.8587H161.804C161.465 94.8587 161.234 94.9021 161.111 94.989C160.989 95.0758 160.927 95.2423 160.927 95.4884V96.672H162.378C162.717 96.672 162.945 96.6286 163.06 96.5417C163.183 96.4548 163.244 96.2883 163.244 96.0422V92.839C162.977 92.7594 162.613 92.7196 162.151 92.7196C161.869 92.7196 161.573 92.7413 161.263 92.7847C160.953 92.8281 160.639 92.8933 160.321 92.9802L160.18 92.1875C160.361 92.1223 160.57 92.0644 160.808 92.0138C161.046 91.9631 161.299 91.9269 161.566 91.9052C161.833 91.8762 162.089 91.8617 162.335 91.8617C162.825 91.8617 163.215 91.9124 163.504 92.0138C163.8 92.1079 164.009 92.2671 164.132 92.4915C164.262 92.7087 164.327 93.0055 164.327 93.3819V97.3995H163.829L163.536 96.8566C163.277 97.081 162.988 97.2475 162.67 97.3561C162.36 97.4574 162.003 97.5081 161.599 97.5081Z" fill="white"/>
<path d="M167.844 91.8617C168.313 91.8617 168.692 91.9016 168.981 91.9812C169.27 92.0536 169.49 92.1911 169.641 92.3938C169.8 92.5893 169.909 92.8716 169.966 93.2408C170.024 93.6099 170.053 94.0913 170.053 94.6849C170.053 95.293 170.024 95.7888 169.966 96.1725C169.909 96.5489 169.8 96.8385 169.641 97.0412C169.49 97.2439 169.27 97.3814 168.981 97.4538C168.692 97.5262 168.313 97.5624 167.844 97.5624C167.447 97.5624 167.123 97.5189 166.87 97.4321C166.617 97.3452 166.419 97.1968 166.275 96.9869C166.137 96.777 166.04 96.4874 165.982 96.1182C165.925 95.7418 165.896 95.264 165.896 94.6849C165.896 94.1203 165.925 93.6534 165.982 93.2842C166.04 92.915 166.141 92.6291 166.285 92.4264C166.43 92.2165 166.628 92.0717 166.881 91.992C167.133 91.9052 167.455 91.8617 167.844 91.8617ZM169.349 92.7521H167.53C167.336 92.7521 167.202 92.7702 167.13 92.8064C167.065 92.8426 167.032 92.915 167.032 93.0236V96.672H168.851C169.046 96.672 169.176 96.6539 169.241 96.6177C169.313 96.5815 169.349 96.5091 169.349 96.4005V92.7521ZM170.432 90.0484V97.3995H169.934L169.349 96.3137V90.1787L170.432 90.0484Z" fill="white"/>
<path d="M174.409 97.5081C173.939 97.5081 173.55 97.4683 173.239 97.3886C172.936 97.3018 172.698 97.157 172.525 96.9543C172.352 96.7444 172.229 96.4548 172.157 96.0856C172.092 95.7165 172.059 95.2496 172.059 94.6849C172.059 94.1203 172.092 93.6534 172.157 93.2842C172.229 92.915 172.352 92.6291 172.525 92.4264C172.698 92.2165 172.936 92.0717 173.239 91.992C173.55 91.9052 173.939 91.8617 174.409 91.8617C174.885 91.8617 175.275 91.9052 175.578 91.992C175.888 92.0717 176.126 92.2165 176.292 92.4264C176.466 92.6291 176.585 92.915 176.65 93.2842C176.722 93.6461 176.758 94.113 176.758 94.6849C176.758 95.2496 176.722 95.7165 176.65 96.0856C176.585 96.4548 176.466 96.7444 176.292 96.9543C176.119 97.157 175.877 97.3018 175.567 97.3886C175.264 97.4683 174.878 97.5081 174.409 97.5081ZM173.185 96.6177H175.112C175.322 96.6177 175.459 96.5996 175.524 96.5634C175.596 96.5272 175.632 96.4548 175.632 96.3462V92.7521H173.705C173.503 92.7521 173.366 92.7702 173.293 92.8064C173.221 92.8426 173.185 92.915 173.185 93.0236V96.6177Z" fill="white"/>
<path d="M178.887 91.9703L179.266 92.8281C179.591 92.5313 179.869 92.3069 180.1 92.1549C180.331 91.9957 180.547 91.8798 180.75 91.8075L180.858 92.8716C180.706 92.915 180.544 92.9765 180.371 93.0562C180.197 93.1286 180.031 93.2082 179.873 93.295C179.721 93.3819 179.584 93.4724 179.461 93.5665V97.3995H178.379V91.9703H178.887Z" fill="white"/>
<path d="M183.272 97.5081C182.68 97.5081 182.254 97.385 181.994 97.1389C181.742 96.8855 181.615 96.4657 181.615 95.8793C181.615 95.5029 181.652 95.2025 181.724 94.9781C181.796 94.7464 181.937 94.5727 182.146 94.4569C182.362 94.3338 182.68 94.2542 183.099 94.218C183.517 94.1746 184.069 94.1529 184.755 94.1529H185.242V94.8587H183.478C183.138 94.8587 182.907 94.9021 182.785 94.989C182.662 95.0758 182.601 95.2423 182.601 95.4884V96.672H184.051C184.391 96.672 184.618 96.6286 184.733 96.5417C184.856 96.4548 184.917 96.2883 184.917 96.0422V92.839C184.65 92.7594 184.286 92.7196 183.824 92.7196C183.542 92.7196 183.247 92.7413 182.936 92.7847C182.626 92.8281 182.312 92.8933 181.994 92.9802L181.854 92.1875C182.034 92.1223 182.243 92.0644 182.482 92.0138C182.72 91.9631 182.972 91.9269 183.239 91.9052C183.506 91.8762 183.763 91.8617 184.008 91.8617C184.499 91.8617 184.889 91.9124 185.177 92.0138C185.473 92.1079 185.682 92.2671 185.805 92.4915C185.935 92.7087 186 93.0055 186 93.3819V97.3995H185.502L185.21 96.8566C184.95 97.081 184.661 97.2475 184.344 97.3561C184.033 97.4574 183.676 97.5081 183.272 97.5081Z" fill="white"/>
</g>
<defs>
<clipPath id="clip0_746_259">
<rect width="200" height="120" fill="white"/>
</clipPath>
<clipPath id="clip1_746_259">
<rect width="50.2398" height="48.2653" fill="white" transform="translate(17.949 29.1174)"/>
</clipPath>
</defs>
</svg>
